%TF.GenerationSoftware,KiCad,Pcbnew,6.0.2+dfsg-1*%
%TF.CreationDate,2023-03-08T14:33:38+01:00*%
%TF.ProjectId,bunny,62756e6e-792e-46b6-9963-61645f706362,rev?*%
%TF.SameCoordinates,Original*%
%TF.FileFunction,Legend,Bot*%
%TF.FilePolarity,Positive*%
%FSLAX46Y46*%
G04 Gerber Fmt 4.6, Leading zero omitted, Abs format (unit mm)*
G04 Created by KiCad (PCBNEW 6.0.2+dfsg-1) date 2023-03-08 14:33:38*
%MOMM*%
%LPD*%
G01*
G04 APERTURE LIST*
%ADD10C,0.200000*%
%ADD11C,0.010000*%
G04 APERTURE END LIST*
D10*
X154976190Y-90185714D02*
X155014285Y-90223809D01*
X155128571Y-90261904D01*
X155204761Y-90261904D01*
X155319047Y-90223809D01*
X155395238Y-90147619D01*
X155433333Y-90071428D01*
X155471428Y-89919047D01*
X155471428Y-89804761D01*
X155433333Y-89652380D01*
X155395238Y-89576190D01*
X155319047Y-89500000D01*
X155204761Y-89461904D01*
X155128571Y-89461904D01*
X155014285Y-89500000D01*
X154976190Y-89538095D01*
X154633333Y-90261904D02*
X154633333Y-89728571D01*
X154633333Y-89880952D02*
X154595238Y-89804761D01*
X154557142Y-89766666D01*
X154480952Y-89728571D01*
X154404761Y-89728571D01*
X153833333Y-90223809D02*
X153909523Y-90261904D01*
X154061904Y-90261904D01*
X154138095Y-90223809D01*
X154176190Y-90147619D01*
X154176190Y-89842857D01*
X154138095Y-89766666D01*
X154061904Y-89728571D01*
X153909523Y-89728571D01*
X153833333Y-89766666D01*
X153795238Y-89842857D01*
X153795238Y-89919047D01*
X154176190Y-89995238D01*
X153109523Y-90261904D02*
X153109523Y-89842857D01*
X153147619Y-89766666D01*
X153223809Y-89728571D01*
X153376190Y-89728571D01*
X153452380Y-89766666D01*
X153109523Y-90223809D02*
X153185714Y-90261904D01*
X153376190Y-90261904D01*
X153452380Y-90223809D01*
X153490476Y-90147619D01*
X153490476Y-90071428D01*
X153452380Y-89995238D01*
X153376190Y-89957142D01*
X153185714Y-89957142D01*
X153109523Y-89919047D01*
X152842857Y-89728571D02*
X152538095Y-89728571D01*
X152728571Y-89461904D02*
X152728571Y-90147619D01*
X152690476Y-90223809D01*
X152614285Y-90261904D01*
X152538095Y-90261904D01*
X152271428Y-90261904D02*
X152271428Y-89728571D01*
X152271428Y-89461904D02*
X152309523Y-89500000D01*
X152271428Y-89538095D01*
X152233333Y-89500000D01*
X152271428Y-89461904D01*
X152271428Y-89538095D01*
X151966666Y-89728571D02*
X151776190Y-90261904D01*
X151585714Y-89728571D01*
X150976190Y-90223809D02*
X151052380Y-90261904D01*
X151204761Y-90261904D01*
X151280952Y-90223809D01*
X151319047Y-90147619D01*
X151319047Y-89842857D01*
X151280952Y-89766666D01*
X151204761Y-89728571D01*
X151052380Y-89728571D01*
X150976190Y-89766666D01*
X150938095Y-89842857D01*
X150938095Y-89919047D01*
X151319047Y-89995238D01*
X149528571Y-90185714D02*
X149566666Y-90223809D01*
X149680952Y-90261904D01*
X149757142Y-90261904D01*
X149871428Y-90223809D01*
X149947619Y-90147619D01*
X149985714Y-90071428D01*
X150023809Y-89919047D01*
X150023809Y-89804761D01*
X149985714Y-89652380D01*
X149947619Y-89576190D01*
X149871428Y-89500000D01*
X149757142Y-89461904D01*
X149680952Y-89461904D01*
X149566666Y-89500000D01*
X149528571Y-89538095D01*
X149071428Y-90261904D02*
X149147619Y-90223809D01*
X149185714Y-90185714D01*
X149223809Y-90109523D01*
X149223809Y-89880952D01*
X149185714Y-89804761D01*
X149147619Y-89766666D01*
X149071428Y-89728571D01*
X148957142Y-89728571D01*
X148880952Y-89766666D01*
X148842857Y-89804761D01*
X148804761Y-89880952D01*
X148804761Y-90109523D01*
X148842857Y-90185714D01*
X148880952Y-90223809D01*
X148957142Y-90261904D01*
X149071428Y-90261904D01*
X148461904Y-90261904D02*
X148461904Y-89728571D01*
X148461904Y-89804761D02*
X148423809Y-89766666D01*
X148347619Y-89728571D01*
X148233333Y-89728571D01*
X148157142Y-89766666D01*
X148119047Y-89842857D01*
X148119047Y-90261904D01*
X148119047Y-89842857D02*
X148080952Y-89766666D01*
X148004761Y-89728571D01*
X147890476Y-89728571D01*
X147814285Y-89766666D01*
X147776190Y-89842857D01*
X147776190Y-90261904D01*
X147395238Y-90261904D02*
X147395238Y-89728571D01*
X147395238Y-89804761D02*
X147357142Y-89766666D01*
X147280952Y-89728571D01*
X147166666Y-89728571D01*
X147090476Y-89766666D01*
X147052380Y-89842857D01*
X147052380Y-90261904D01*
X147052380Y-89842857D02*
X147014285Y-89766666D01*
X146938095Y-89728571D01*
X146823809Y-89728571D01*
X146747619Y-89766666D01*
X146709523Y-89842857D01*
X146709523Y-90261904D01*
X146214285Y-90261904D02*
X146290476Y-90223809D01*
X146328571Y-90185714D01*
X146366666Y-90109523D01*
X146366666Y-89880952D01*
X146328571Y-89804761D01*
X146290476Y-89766666D01*
X146214285Y-89728571D01*
X146100000Y-89728571D01*
X146023809Y-89766666D01*
X145985714Y-89804761D01*
X145947619Y-89880952D01*
X145947619Y-90109523D01*
X145985714Y-90185714D01*
X146023809Y-90223809D01*
X146100000Y-90261904D01*
X146214285Y-90261904D01*
X145604761Y-89728571D02*
X145604761Y-90261904D01*
X145604761Y-89804761D02*
X145566666Y-89766666D01*
X145490476Y-89728571D01*
X145376190Y-89728571D01*
X145300000Y-89766666D01*
X145261904Y-89842857D01*
X145261904Y-90261904D01*
X144919047Y-90223809D02*
X144842857Y-90261904D01*
X144690476Y-90261904D01*
X144614285Y-90223809D01*
X144576190Y-90147619D01*
X144576190Y-90109523D01*
X144614285Y-90033333D01*
X144690476Y-89995238D01*
X144804761Y-89995238D01*
X144880952Y-89957142D01*
X144919047Y-89880952D01*
X144919047Y-89842857D01*
X144880952Y-89766666D01*
X144804761Y-89728571D01*
X144690476Y-89728571D01*
X144614285Y-89766666D01*
X143280952Y-89728571D02*
X143280952Y-90261904D01*
X143471428Y-89423809D02*
X143661904Y-89995238D01*
X143166666Y-89995238D01*
X142861904Y-90185714D02*
X142823809Y-90223809D01*
X142861904Y-90261904D01*
X142900000Y-90223809D01*
X142861904Y-90185714D01*
X142861904Y-90261904D01*
X142328571Y-89461904D02*
X142252380Y-89461904D01*
X142176190Y-89500000D01*
X142138095Y-89538095D01*
X142100000Y-89614285D01*
X142061904Y-89766666D01*
X142061904Y-89957142D01*
X142100000Y-90109523D01*
X142138095Y-90185714D01*
X142176190Y-90223809D01*
X142252380Y-90261904D01*
X142328571Y-90261904D01*
X142404761Y-90223809D01*
X142442857Y-90185714D01*
X142480952Y-90109523D01*
X142519047Y-89957142D01*
X142519047Y-89766666D01*
X142480952Y-89614285D01*
X142442857Y-89538095D01*
X142404761Y-89500000D01*
X142328571Y-89461904D01*
X140842857Y-89842857D02*
X140728571Y-89880952D01*
X140690476Y-89919047D01*
X140652380Y-89995238D01*
X140652380Y-90109523D01*
X140690476Y-90185714D01*
X140728571Y-90223809D01*
X140804761Y-90261904D01*
X141109523Y-90261904D01*
X141109523Y-89461904D01*
X140842857Y-89461904D01*
X140766666Y-89500000D01*
X140728571Y-89538095D01*
X140690476Y-89614285D01*
X140690476Y-89690476D01*
X140728571Y-89766666D01*
X140766666Y-89804761D01*
X140842857Y-89842857D01*
X141109523Y-89842857D01*
X140157142Y-89880952D02*
X140157142Y-90261904D01*
X140423809Y-89461904D02*
X140157142Y-89880952D01*
X139890476Y-89461904D01*
X139623809Y-89957142D02*
X139014285Y-89957142D01*
X138671428Y-90223809D02*
X138557142Y-90261904D01*
X138366666Y-90261904D01*
X138290476Y-90223809D01*
X138252380Y-90185714D01*
X138214285Y-90109523D01*
X138214285Y-90033333D01*
X138252380Y-89957142D01*
X138290476Y-89919047D01*
X138366666Y-89880952D01*
X138519047Y-89842857D01*
X138595238Y-89804761D01*
X138633333Y-89766666D01*
X138671428Y-89690476D01*
X138671428Y-89614285D01*
X138633333Y-89538095D01*
X138595238Y-89500000D01*
X138519047Y-89461904D01*
X138328571Y-89461904D01*
X138214285Y-89500000D01*
X137909523Y-90033333D02*
X137528571Y-90033333D01*
X137985714Y-90261904D02*
X137719047Y-89461904D01*
X137452380Y-90261904D01*
X154023809Y-87661904D02*
X154023809Y-88233333D01*
X154061904Y-88347619D01*
X154138095Y-88423809D01*
X154252380Y-88461904D01*
X154328571Y-88461904D01*
X153300000Y-88461904D02*
X153300000Y-88042857D01*
X153338095Y-87966666D01*
X153414285Y-87928571D01*
X153566666Y-87928571D01*
X153642857Y-87966666D01*
X153300000Y-88423809D02*
X153376190Y-88461904D01*
X153566666Y-88461904D01*
X153642857Y-88423809D01*
X153680952Y-88347619D01*
X153680952Y-88271428D01*
X153642857Y-88195238D01*
X153566666Y-88157142D01*
X153376190Y-88157142D01*
X153300000Y-88119047D01*
X152919047Y-87928571D02*
X152919047Y-88461904D01*
X152919047Y-88004761D02*
X152880952Y-87966666D01*
X152804761Y-87928571D01*
X152690476Y-87928571D01*
X152614285Y-87966666D01*
X152576190Y-88042857D01*
X152576190Y-88461904D01*
X151204761Y-88461904D02*
X151585714Y-88461904D01*
X151585714Y-87661904D01*
X150938095Y-88461904D02*
X150938095Y-87928571D01*
X150938095Y-87661904D02*
X150976190Y-87700000D01*
X150938095Y-87738095D01*
X150900000Y-87700000D01*
X150938095Y-87661904D01*
X150938095Y-87738095D01*
X150252380Y-88423809D02*
X150328571Y-88461904D01*
X150480952Y-88461904D01*
X150557142Y-88423809D01*
X150595238Y-88347619D01*
X150595238Y-88042857D01*
X150557142Y-87966666D01*
X150480952Y-87928571D01*
X150328571Y-87928571D01*
X150252380Y-87966666D01*
X150214285Y-88042857D01*
X150214285Y-88119047D01*
X150595238Y-88195238D01*
X149871428Y-88461904D02*
X149871428Y-87661904D01*
X149871428Y-87966666D02*
X149795238Y-87928571D01*
X149642857Y-87928571D01*
X149566666Y-87966666D01*
X149528571Y-88004761D01*
X149490476Y-88080952D01*
X149490476Y-88309523D01*
X149528571Y-88385714D01*
X149566666Y-88423809D01*
X149642857Y-88461904D01*
X149795238Y-88461904D01*
X149871428Y-88423809D01*
X149147619Y-88461904D02*
X149147619Y-87661904D01*
X148804761Y-88461904D02*
X148804761Y-88042857D01*
X148842857Y-87966666D01*
X148919047Y-87928571D01*
X149033333Y-87928571D01*
X149109523Y-87966666D01*
X149147619Y-88004761D01*
X148080952Y-88461904D02*
X148080952Y-88042857D01*
X148119047Y-87966666D01*
X148195238Y-87928571D01*
X148347619Y-87928571D01*
X148423809Y-87966666D01*
X148080952Y-88423809D02*
X148157142Y-88461904D01*
X148347619Y-88461904D01*
X148423809Y-88423809D01*
X148461904Y-88347619D01*
X148461904Y-88271428D01*
X148423809Y-88195238D01*
X148347619Y-88157142D01*
X148157142Y-88157142D01*
X148080952Y-88119047D01*
X148423809Y-87661904D02*
X148385714Y-87700000D01*
X148423809Y-87738095D01*
X148461904Y-87700000D01*
X148423809Y-87661904D01*
X148423809Y-87738095D01*
X148119047Y-87661904D02*
X148080952Y-87700000D01*
X148119047Y-87738095D01*
X148157142Y-87700000D01*
X148119047Y-87661904D01*
X148119047Y-87738095D01*
X147357142Y-87928571D02*
X147357142Y-88461904D01*
X147700000Y-87928571D02*
X147700000Y-88347619D01*
X147661904Y-88423809D01*
X147585714Y-88461904D01*
X147471428Y-88461904D01*
X147395238Y-88423809D01*
X147357142Y-88385714D01*
X147014285Y-88423809D02*
X146938095Y-88461904D01*
X146785714Y-88461904D01*
X146709523Y-88423809D01*
X146671428Y-88347619D01*
X146671428Y-88309523D01*
X146709523Y-88233333D01*
X146785714Y-88195238D01*
X146900000Y-88195238D01*
X146976190Y-88157142D01*
X147014285Y-88080952D01*
X147014285Y-88042857D01*
X146976190Y-87966666D01*
X146900000Y-87928571D01*
X146785714Y-87928571D01*
X146709523Y-87966666D01*
X146023809Y-88423809D02*
X146100000Y-88461904D01*
X146252380Y-88461904D01*
X146328571Y-88423809D01*
X146366666Y-88347619D01*
X146366666Y-88042857D01*
X146328571Y-87966666D01*
X146252380Y-87928571D01*
X146100000Y-87928571D01*
X146023809Y-87966666D01*
X145985714Y-88042857D01*
X145985714Y-88119047D01*
X146366666Y-88195238D01*
X145642857Y-88461904D02*
X145642857Y-87928571D01*
X145642857Y-88080952D02*
X145604761Y-88004761D01*
X145566666Y-87966666D01*
X145490476Y-87928571D01*
X145414285Y-87928571D01*
X144576190Y-87738095D02*
X144538095Y-87700000D01*
X144461904Y-87661904D01*
X144271428Y-87661904D01*
X144195238Y-87700000D01*
X144157142Y-87738095D01*
X144119047Y-87814285D01*
X144119047Y-87890476D01*
X144157142Y-88004761D01*
X144614285Y-88461904D01*
X144119047Y-88461904D01*
X143623809Y-87661904D02*
X143547619Y-87661904D01*
X143471428Y-87700000D01*
X143433333Y-87738095D01*
X143395238Y-87814285D01*
X143357142Y-87966666D01*
X143357142Y-88157142D01*
X143395238Y-88309523D01*
X143433333Y-88385714D01*
X143471428Y-88423809D01*
X143547619Y-88461904D01*
X143623809Y-88461904D01*
X143700000Y-88423809D01*
X143738095Y-88385714D01*
X143776190Y-88309523D01*
X143814285Y-88157142D01*
X143814285Y-87966666D01*
X143776190Y-87814285D01*
X143738095Y-87738095D01*
X143700000Y-87700000D01*
X143623809Y-87661904D01*
X143052380Y-87738095D02*
X143014285Y-87700000D01*
X142938095Y-87661904D01*
X142747619Y-87661904D01*
X142671428Y-87700000D01*
X142633333Y-87738095D01*
X142595238Y-87814285D01*
X142595238Y-87890476D01*
X142633333Y-88004761D01*
X143090476Y-88461904D01*
X142595238Y-88461904D01*
X142328571Y-87661904D02*
X141833333Y-87661904D01*
X142100000Y-87966666D01*
X141985714Y-87966666D01*
X141909523Y-88004761D01*
X141871428Y-88042857D01*
X141833333Y-88119047D01*
X141833333Y-88309523D01*
X141871428Y-88385714D01*
X141909523Y-88423809D01*
X141985714Y-88461904D01*
X142214285Y-88461904D01*
X142290476Y-88423809D01*
X142328571Y-88385714D01*
X140957142Y-87928571D02*
X140766666Y-88461904D01*
X140576190Y-87928571D01*
X139852380Y-88461904D02*
X140309523Y-88461904D01*
X140080952Y-88461904D02*
X140080952Y-87661904D01*
X140157142Y-87776190D01*
X140233333Y-87852380D01*
X140309523Y-87890476D01*
X139509523Y-88385714D02*
X139471428Y-88423809D01*
X139509523Y-88461904D01*
X139547619Y-88423809D01*
X139509523Y-88385714D01*
X139509523Y-88461904D01*
X138976190Y-87661904D02*
X138900000Y-87661904D01*
X138823809Y-87700000D01*
X138785714Y-87738095D01*
X138747619Y-87814285D01*
X138709523Y-87966666D01*
X138709523Y-88157142D01*
X138747619Y-88309523D01*
X138785714Y-88385714D01*
X138823809Y-88423809D01*
X138900000Y-88461904D01*
X138976190Y-88461904D01*
X139052380Y-88423809D01*
X139090476Y-88385714D01*
X139128571Y-88309523D01*
X139166666Y-88157142D01*
X139166666Y-87966666D01*
X139128571Y-87814285D01*
X139090476Y-87738095D01*
X139052380Y-87700000D01*
X138976190Y-87661904D01*
D11*
%TO.C,REF\u002A\u002A*%
X147705402Y-85473857D02*
X147696846Y-85593188D01*
X147696846Y-85593188D02*
X147687019Y-85663506D01*
X147687019Y-85663506D02*
X147673401Y-85694179D01*
X147673401Y-85694179D02*
X147653473Y-85694571D01*
X147653473Y-85694571D02*
X147647011Y-85690910D01*
X147647011Y-85690910D02*
X147561060Y-85664398D01*
X147561060Y-85664398D02*
X147449255Y-85665946D01*
X147449255Y-85665946D02*
X147335586Y-85693199D01*
X147335586Y-85693199D02*
X147264490Y-85728455D01*
X147264490Y-85728455D02*
X147191595Y-85784778D01*
X147191595Y-85784778D02*
X147138307Y-85848519D01*
X147138307Y-85848519D02*
X147101725Y-85929510D01*
X147101725Y-85929510D02*
X147078950Y-86037586D01*
X147078950Y-86037586D02*
X147067081Y-86182580D01*
X147067081Y-86182580D02*
X147063218Y-86374326D01*
X147063218Y-86374326D02*
X147063149Y-86411109D01*
X147063149Y-86411109D02*
X147063103Y-86824288D01*
X147063103Y-86824288D02*
X147155046Y-86856339D01*
X147155046Y-86856339D02*
X147220348Y-86878144D01*
X147220348Y-86878144D02*
X147256176Y-86888297D01*
X147256176Y-86888297D02*
X147257230Y-86888391D01*
X147257230Y-86888391D02*
X147260758Y-86860860D01*
X147260758Y-86860860D02*
X147263761Y-86784923D01*
X147263761Y-86784923D02*
X147266010Y-86670565D01*
X147266010Y-86670565D02*
X147267276Y-86527769D01*
X147267276Y-86527769D02*
X147267471Y-86440951D01*
X147267471Y-86440951D02*
X147267877Y-86269773D01*
X147267877Y-86269773D02*
X147269968Y-86147088D01*
X147269968Y-86147088D02*
X147275053Y-86063000D01*
X147275053Y-86063000D02*
X147284440Y-86007614D01*
X147284440Y-86007614D02*
X147299439Y-85971032D01*
X147299439Y-85971032D02*
X147321358Y-85943359D01*
X147321358Y-85943359D02*
X147335043Y-85930032D01*
X147335043Y-85930032D02*
X147429051Y-85876328D01*
X147429051Y-85876328D02*
X147531636Y-85872307D01*
X147531636Y-85872307D02*
X147624710Y-85917725D01*
X147624710Y-85917725D02*
X147641922Y-85934123D01*
X147641922Y-85934123D02*
X147667168Y-85964957D01*
X147667168Y-85964957D02*
X147684680Y-86001531D01*
X147684680Y-86001531D02*
X147695858Y-86054415D01*
X147695858Y-86054415D02*
X147702104Y-86134177D01*
X147702104Y-86134177D02*
X147704818Y-86251385D01*
X147704818Y-86251385D02*
X147705402Y-86412991D01*
X147705402Y-86412991D02*
X147705402Y-86824288D01*
X147705402Y-86824288D02*
X147797345Y-86856339D01*
X147797345Y-86856339D02*
X147862647Y-86878144D01*
X147862647Y-86878144D02*
X147898475Y-86888297D01*
X147898475Y-86888297D02*
X147899529Y-86888391D01*
X147899529Y-86888391D02*
X147902225Y-86860448D01*
X147902225Y-86860448D02*
X147904655Y-86781630D01*
X147904655Y-86781630D02*
X147906722Y-86659453D01*
X147906722Y-86659453D02*
X147908329Y-86501432D01*
X147908329Y-86501432D02*
X147909377Y-86315083D01*
X147909377Y-86315083D02*
X147909769Y-86107920D01*
X147909769Y-86107920D02*
X147909770Y-86098706D01*
X147909770Y-86098706D02*
X147909770Y-85309020D01*
X147909770Y-85309020D02*
X147814885Y-85268997D01*
X147814885Y-85268997D02*
X147720000Y-85228973D01*
X147720000Y-85228973D02*
X147705402Y-85473857D01*
X147705402Y-85473857D02*
X147705402Y-85473857D01*
G36*
X147814885Y-85268997D02*
G01*
X147909770Y-85309020D01*
X147909770Y-86098706D01*
X147909769Y-86107920D01*
X147909377Y-86315083D01*
X147908329Y-86501432D01*
X147906722Y-86659453D01*
X147904655Y-86781630D01*
X147902225Y-86860448D01*
X147899529Y-86888391D01*
X147898475Y-86888297D01*
X147862647Y-86878144D01*
X147797345Y-86856339D01*
X147705402Y-86824288D01*
X147705402Y-86412991D01*
X147704818Y-86251385D01*
X147702104Y-86134177D01*
X147695858Y-86054415D01*
X147684680Y-86001531D01*
X147667168Y-85964957D01*
X147641922Y-85934123D01*
X147624710Y-85917725D01*
X147531636Y-85872307D01*
X147429051Y-85876328D01*
X147335043Y-85930032D01*
X147321358Y-85943359D01*
X147299439Y-85971032D01*
X147284440Y-86007614D01*
X147275053Y-86063000D01*
X147269968Y-86147088D01*
X147267877Y-86269773D01*
X147267471Y-86440951D01*
X147267276Y-86527769D01*
X147266010Y-86670565D01*
X147263761Y-86784923D01*
X147260758Y-86860860D01*
X147257230Y-86888391D01*
X147256176Y-86888297D01*
X147220348Y-86878144D01*
X147155046Y-86856339D01*
X147063103Y-86824288D01*
X147063149Y-86411109D01*
X147063218Y-86374326D01*
X147067081Y-86182580D01*
X147078950Y-86037586D01*
X147101725Y-85929510D01*
X147138307Y-85848519D01*
X147191595Y-85784778D01*
X147264490Y-85728455D01*
X147335586Y-85693199D01*
X147449255Y-85665946D01*
X147561060Y-85664398D01*
X147647011Y-85690910D01*
X147653473Y-85694571D01*
X147673401Y-85694179D01*
X147687019Y-85663506D01*
X147696846Y-85593188D01*
X147705402Y-85473857D01*
X147720000Y-85228973D01*
X147814885Y-85268997D01*
G37*
X147814885Y-85268997D02*
X147909770Y-85309020D01*
X147909770Y-86098706D01*
X147909769Y-86107920D01*
X147909377Y-86315083D01*
X147908329Y-86501432D01*
X147906722Y-86659453D01*
X147904655Y-86781630D01*
X147902225Y-86860448D01*
X147899529Y-86888391D01*
X147898475Y-86888297D01*
X147862647Y-86878144D01*
X147797345Y-86856339D01*
X147705402Y-86824288D01*
X147705402Y-86412991D01*
X147704818Y-86251385D01*
X147702104Y-86134177D01*
X147695858Y-86054415D01*
X147684680Y-86001531D01*
X147667168Y-85964957D01*
X147641922Y-85934123D01*
X147624710Y-85917725D01*
X147531636Y-85872307D01*
X147429051Y-85876328D01*
X147335043Y-85930032D01*
X147321358Y-85943359D01*
X147299439Y-85971032D01*
X147284440Y-86007614D01*
X147275053Y-86063000D01*
X147269968Y-86147088D01*
X147267877Y-86269773D01*
X147267471Y-86440951D01*
X147267276Y-86527769D01*
X147266010Y-86670565D01*
X147263761Y-86784923D01*
X147260758Y-86860860D01*
X147257230Y-86888391D01*
X147256176Y-86888297D01*
X147220348Y-86878144D01*
X147155046Y-86856339D01*
X147063103Y-86824288D01*
X147063149Y-86411109D01*
X147063218Y-86374326D01*
X147067081Y-86182580D01*
X147078950Y-86037586D01*
X147101725Y-85929510D01*
X147138307Y-85848519D01*
X147191595Y-85784778D01*
X147264490Y-85728455D01*
X147335586Y-85693199D01*
X147449255Y-85665946D01*
X147561060Y-85664398D01*
X147647011Y-85690910D01*
X147653473Y-85694571D01*
X147673401Y-85694179D01*
X147687019Y-85663506D01*
X147696846Y-85593188D01*
X147705402Y-85473857D01*
X147720000Y-85228973D01*
X147814885Y-85268997D01*
X142869876Y-85689840D02*
X142865421Y-85766653D01*
X142865421Y-85766653D02*
X142861929Y-85883391D01*
X142861929Y-85883391D02*
X142859685Y-86030821D01*
X142859685Y-86030821D02*
X142858965Y-86185455D01*
X142858965Y-86185455D02*
X142858965Y-86708727D01*
X142858965Y-86708727D02*
X142951355Y-86801117D01*
X142951355Y-86801117D02*
X143015022Y-86858047D01*
X143015022Y-86858047D02*
X143070911Y-86881107D01*
X143070911Y-86881107D02*
X143147298Y-86879647D01*
X143147298Y-86879647D02*
X143177620Y-86875934D01*
X143177620Y-86875934D02*
X143272390Y-86865126D01*
X143272390Y-86865126D02*
X143350778Y-86858933D01*
X143350778Y-86858933D02*
X143369885Y-86858361D01*
X143369885Y-86858361D02*
X143434301Y-86862102D01*
X143434301Y-86862102D02*
X143526429Y-86871494D01*
X143526429Y-86871494D02*
X143562150Y-86875934D01*
X143562150Y-86875934D02*
X143649886Y-86882801D01*
X143649886Y-86882801D02*
X143708847Y-86867885D01*
X143708847Y-86867885D02*
X143767310Y-86821835D01*
X143767310Y-86821835D02*
X143788415Y-86801117D01*
X143788415Y-86801117D02*
X143880805Y-86708727D01*
X143880805Y-86708727D02*
X143880805Y-85729947D01*
X143880805Y-85729947D02*
X143806442Y-85696066D01*
X143806442Y-85696066D02*
X143742410Y-85670970D01*
X143742410Y-85670970D02*
X143704948Y-85662184D01*
X143704948Y-85662184D02*
X143695343Y-85689950D01*
X143695343Y-85689950D02*
X143686365Y-85767530D01*
X143686365Y-85767530D02*
X143678614Y-85886348D01*
X143678614Y-85886348D02*
X143672686Y-86037828D01*
X143672686Y-86037828D02*
X143669827Y-86165805D01*
X143669827Y-86165805D02*
X143661839Y-86669425D01*
X143661839Y-86669425D02*
X143592152Y-86679278D01*
X143592152Y-86679278D02*
X143528771Y-86672389D01*
X143528771Y-86672389D02*
X143497714Y-86650083D01*
X143497714Y-86650083D02*
X143489033Y-86608379D01*
X143489033Y-86608379D02*
X143481622Y-86519544D01*
X143481622Y-86519544D02*
X143476069Y-86394834D01*
X143476069Y-86394834D02*
X143472964Y-86245507D01*
X143472964Y-86245507D02*
X143472516Y-86168661D01*
X143472516Y-86168661D02*
X143472069Y-85726287D01*
X143472069Y-85726287D02*
X143380126Y-85694235D01*
X143380126Y-85694235D02*
X143315051Y-85672443D01*
X143315051Y-85672443D02*
X143279653Y-85662281D01*
X143279653Y-85662281D02*
X143278632Y-85662184D01*
X143278632Y-85662184D02*
X143275080Y-85689809D01*
X143275080Y-85689809D02*
X143271177Y-85766411D01*
X143271177Y-85766411D02*
X143267249Y-85882579D01*
X143267249Y-85882579D02*
X143263624Y-86028904D01*
X143263624Y-86028904D02*
X143261092Y-86165805D01*
X143261092Y-86165805D02*
X143253103Y-86669425D01*
X143253103Y-86669425D02*
X143077931Y-86669425D01*
X143077931Y-86669425D02*
X143069893Y-86209965D01*
X143069893Y-86209965D02*
X143061854Y-85750505D01*
X143061854Y-85750505D02*
X142976457Y-85706344D01*
X142976457Y-85706344D02*
X142913407Y-85676019D01*
X142913407Y-85676019D02*
X142876090Y-85662258D01*
X142876090Y-85662258D02*
X142875013Y-85662184D01*
X142875013Y-85662184D02*
X142869876Y-85689840D01*
X142869876Y-85689840D02*
X142869876Y-85689840D01*
G36*
X143742410Y-85670970D02*
G01*
X143806442Y-85696066D01*
X143880805Y-85729947D01*
X143880805Y-86708727D01*
X143788415Y-86801117D01*
X143767310Y-86821835D01*
X143708847Y-86867885D01*
X143649886Y-86882801D01*
X143562150Y-86875934D01*
X143526429Y-86871494D01*
X143434301Y-86862102D01*
X143369885Y-86858361D01*
X143350778Y-86858933D01*
X143272390Y-86865126D01*
X143177620Y-86875934D01*
X143147298Y-86879647D01*
X143070911Y-86881107D01*
X143015022Y-86858047D01*
X142951355Y-86801117D01*
X142858965Y-86708727D01*
X142858965Y-86185455D01*
X142859685Y-86030821D01*
X142861929Y-85883391D01*
X142865421Y-85766653D01*
X142869876Y-85689840D01*
X142875013Y-85662184D01*
X142876090Y-85662258D01*
X142913407Y-85676019D01*
X142976457Y-85706344D01*
X143061854Y-85750505D01*
X143069893Y-86209965D01*
X143077931Y-86669425D01*
X143253103Y-86669425D01*
X143261092Y-86165805D01*
X143263624Y-86028904D01*
X143267249Y-85882579D01*
X143271177Y-85766411D01*
X143275080Y-85689809D01*
X143278632Y-85662184D01*
X143279653Y-85662281D01*
X143315051Y-85672443D01*
X143380126Y-85694235D01*
X143472069Y-85726287D01*
X143472516Y-86168661D01*
X143472964Y-86245507D01*
X143476069Y-86394834D01*
X143481622Y-86519544D01*
X143489033Y-86608379D01*
X143497714Y-86650083D01*
X143528771Y-86672389D01*
X143592152Y-86679278D01*
X143661839Y-86669425D01*
X143669827Y-86165805D01*
X143672686Y-86037828D01*
X143678614Y-85886348D01*
X143686365Y-85767530D01*
X143695343Y-85689950D01*
X143704948Y-85662184D01*
X143742410Y-85670970D01*
G37*
X143742410Y-85670970D02*
X143806442Y-85696066D01*
X143880805Y-85729947D01*
X143880805Y-86708727D01*
X143788415Y-86801117D01*
X143767310Y-86821835D01*
X143708847Y-86867885D01*
X143649886Y-86882801D01*
X143562150Y-86875934D01*
X143526429Y-86871494D01*
X143434301Y-86862102D01*
X143369885Y-86858361D01*
X143350778Y-86858933D01*
X143272390Y-86865126D01*
X143177620Y-86875934D01*
X143147298Y-86879647D01*
X143070911Y-86881107D01*
X143015022Y-86858047D01*
X142951355Y-86801117D01*
X142858965Y-86708727D01*
X142858965Y-86185455D01*
X142859685Y-86030821D01*
X142861929Y-85883391D01*
X142865421Y-85766653D01*
X142869876Y-85689840D01*
X142875013Y-85662184D01*
X142876090Y-85662258D01*
X142913407Y-85676019D01*
X142976457Y-85706344D01*
X143061854Y-85750505D01*
X143069893Y-86209965D01*
X143077931Y-86669425D01*
X143253103Y-86669425D01*
X143261092Y-86165805D01*
X143263624Y-86028904D01*
X143267249Y-85882579D01*
X143271177Y-85766411D01*
X143275080Y-85689809D01*
X143278632Y-85662184D01*
X143279653Y-85662281D01*
X143315051Y-85672443D01*
X143380126Y-85694235D01*
X143472069Y-85726287D01*
X143472516Y-86168661D01*
X143472964Y-86245507D01*
X143476069Y-86394834D01*
X143481622Y-86519544D01*
X143489033Y-86608379D01*
X143497714Y-86650083D01*
X143528771Y-86672389D01*
X143592152Y-86679278D01*
X143661839Y-86669425D01*
X143669827Y-86165805D01*
X143672686Y-86037828D01*
X143678614Y-85886348D01*
X143686365Y-85767530D01*
X143695343Y-85689950D01*
X143704948Y-85662184D01*
X143742410Y-85670970D01*
X146240986Y-76202998D02*
X146082994Y-76203863D01*
X146082994Y-76203863D02*
X145968653Y-76206205D01*
X145968653Y-76206205D02*
X145890593Y-76210762D01*
X145890593Y-76210762D02*
X145841446Y-76218270D01*
X145841446Y-76218270D02*
X145813841Y-76229466D01*
X145813841Y-76229466D02*
X145800408Y-76245088D01*
X145800408Y-76245088D02*
X145793779Y-76265873D01*
X145793779Y-76265873D02*
X145793135Y-76268563D01*
X145793135Y-76268563D02*
X145783065Y-76317113D01*
X145783065Y-76317113D02*
X145764425Y-76412905D01*
X145764425Y-76412905D02*
X145739155Y-76545743D01*
X145739155Y-76545743D02*
X145709193Y-76705431D01*
X145709193Y-76705431D02*
X145676478Y-76881774D01*
X145676478Y-76881774D02*
X145675336Y-76887967D01*
X145675336Y-76887967D02*
X145642567Y-77060782D01*
X145642567Y-77060782D02*
X145611907Y-77213469D01*
X145611907Y-77213469D02*
X145585336Y-77336871D01*
X145585336Y-77336871D02*
X145564833Y-77421831D01*
X145564833Y-77421831D02*
X145552374Y-77459190D01*
X145552374Y-77459190D02*
X145551780Y-77459852D01*
X145551780Y-77459852D02*
X145515081Y-77478095D01*
X145515081Y-77478095D02*
X145439414Y-77508497D01*
X145439414Y-77508497D02*
X145341122Y-77544493D01*
X145341122Y-77544493D02*
X145340575Y-77544685D01*
X145340575Y-77544685D02*
X145216767Y-77591222D01*
X145216767Y-77591222D02*
X145070804Y-77650504D01*
X145070804Y-77650504D02*
X144933219Y-77710109D01*
X144933219Y-77710109D02*
X144926707Y-77713056D01*
X144926707Y-77713056D02*
X144702610Y-77814765D01*
X144702610Y-77814765D02*
X144206381Y-77475897D01*
X144206381Y-77475897D02*
X144054154Y-77372592D01*
X144054154Y-77372592D02*
X143916259Y-77280237D01*
X143916259Y-77280237D02*
X143800685Y-77204084D01*
X143800685Y-77204084D02*
X143715421Y-77149385D01*
X143715421Y-77149385D02*
X143668456Y-77121393D01*
X143668456Y-77121393D02*
X143663996Y-77119317D01*
X143663996Y-77119317D02*
X143629866Y-77128560D01*
X143629866Y-77128560D02*
X143566119Y-77173156D01*
X143566119Y-77173156D02*
X143470269Y-77255209D01*
X143470269Y-77255209D02*
X143339831Y-77376821D01*
X143339831Y-77376821D02*
X143206672Y-77506205D01*
X143206672Y-77506205D02*
X143078306Y-77633702D01*
X143078306Y-77633702D02*
X142963419Y-77750046D01*
X142963419Y-77750046D02*
X142868927Y-77848052D01*
X142868927Y-77848052D02*
X142801747Y-77920536D01*
X142801747Y-77920536D02*
X142768794Y-77960313D01*
X142768794Y-77960313D02*
X142767568Y-77962361D01*
X142767568Y-77962361D02*
X142763926Y-77989656D01*
X142763926Y-77989656D02*
X142777650Y-78034234D01*
X142777650Y-78034234D02*
X142812131Y-78102112D01*
X142812131Y-78102112D02*
X142870761Y-78199311D01*
X142870761Y-78199311D02*
X142956930Y-78331851D01*
X142956930Y-78331851D02*
X143071800Y-78502476D01*
X143071800Y-78502476D02*
X143173746Y-78652655D01*
X143173746Y-78652655D02*
X143264877Y-78787350D01*
X143264877Y-78787350D02*
X143339927Y-78898740D01*
X143339927Y-78898740D02*
X143393631Y-78979005D01*
X143393631Y-78979005D02*
X143420720Y-79020325D01*
X143420720Y-79020325D02*
X143422426Y-79023130D01*
X143422426Y-79023130D02*
X143419118Y-79062721D01*
X143419118Y-79062721D02*
X143394047Y-79139669D01*
X143394047Y-79139669D02*
X143352202Y-79239432D01*
X143352202Y-79239432D02*
X143337288Y-79271291D01*
X143337288Y-79271291D02*
X143272214Y-79413226D01*
X143272214Y-79413226D02*
X143202788Y-79574273D01*
X143202788Y-79574273D02*
X143146391Y-79713621D01*
X143146391Y-79713621D02*
X143105753Y-79817044D01*
X143105753Y-79817044D02*
X143073474Y-79895642D01*
X143073474Y-79895642D02*
X143054822Y-79936720D01*
X143054822Y-79936720D02*
X143052503Y-79939885D01*
X143052503Y-79939885D02*
X143018197Y-79945128D01*
X143018197Y-79945128D02*
X142937331Y-79959494D01*
X142937331Y-79959494D02*
X142820657Y-79980937D01*
X142820657Y-79980937D02*
X142678925Y-80007413D01*
X142678925Y-80007413D02*
X142522890Y-80036877D01*
X142522890Y-80036877D02*
X142363302Y-80067283D01*
X142363302Y-80067283D02*
X142210915Y-80096588D01*
X142210915Y-80096588D02*
X142076479Y-80122745D01*
X142076479Y-80122745D02*
X141970748Y-80143710D01*
X141970748Y-80143710D02*
X141904474Y-80157439D01*
X141904474Y-80157439D02*
X141888218Y-80161320D01*
X141888218Y-80161320D02*
X141871427Y-80170900D01*
X141871427Y-80170900D02*
X141858751Y-80192536D01*
X141858751Y-80192536D02*
X141849622Y-80233531D01*
X141849622Y-80233531D02*
X141843469Y-80301189D01*
X141843469Y-80301189D02*
X141839720Y-80402812D01*
X141839720Y-80402812D02*
X141837808Y-80545703D01*
X141837808Y-80545703D02*
X141837160Y-80737165D01*
X141837160Y-80737165D02*
X141837126Y-80815645D01*
X141837126Y-80815645D02*
X141837126Y-81453906D01*
X141837126Y-81453906D02*
X141990402Y-81484160D01*
X141990402Y-81484160D02*
X142075678Y-81500564D01*
X142075678Y-81500564D02*
X142202930Y-81524509D01*
X142202930Y-81524509D02*
X142356685Y-81553107D01*
X142356685Y-81553107D02*
X142521466Y-81583467D01*
X142521466Y-81583467D02*
X142567011Y-81591806D01*
X142567011Y-81591806D02*
X142719068Y-81621370D01*
X142719068Y-81621370D02*
X142851532Y-81650442D01*
X142851532Y-81650442D02*
X142953286Y-81676329D01*
X142953286Y-81676329D02*
X143013212Y-81696337D01*
X143013212Y-81696337D02*
X143023195Y-81702301D01*
X143023195Y-81702301D02*
X143047707Y-81744534D01*
X143047707Y-81744534D02*
X143082852Y-81826370D01*
X143082852Y-81826370D02*
X143121827Y-81931683D01*
X143121827Y-81931683D02*
X143129558Y-81954368D01*
X143129558Y-81954368D02*
X143180640Y-82095018D01*
X143180640Y-82095018D02*
X143244046Y-82253714D01*
X143244046Y-82253714D02*
X143306096Y-82396225D01*
X143306096Y-82396225D02*
X143306402Y-82396886D01*
X143306402Y-82396886D02*
X143409733Y-82620440D01*
X143409733Y-82620440D02*
X142730039Y-83620232D01*
X142730039Y-83620232D02*
X143166379Y-84057300D01*
X143166379Y-84057300D02*
X143298351Y-84187381D01*
X143298351Y-84187381D02*
X143418721Y-84302048D01*
X143418721Y-84302048D02*
X143520727Y-84395181D01*
X143520727Y-84395181D02*
X143597609Y-84460658D01*
X143597609Y-84460658D02*
X143642607Y-84492357D01*
X143642607Y-84492357D02*
X143649062Y-84494368D01*
X143649062Y-84494368D02*
X143686960Y-84478529D01*
X143686960Y-84478529D02*
X143764292Y-84434496D01*
X143764292Y-84434496D02*
X143872611Y-84367490D01*
X143872611Y-84367490D02*
X144003468Y-84282734D01*
X144003468Y-84282734D02*
X144144948Y-84187816D01*
X144144948Y-84187816D02*
X144288539Y-84090998D01*
X144288539Y-84090998D02*
X144416565Y-84006751D01*
X144416565Y-84006751D02*
X144520895Y-83940258D01*
X144520895Y-83940258D02*
X144593400Y-83896702D01*
X144593400Y-83896702D02*
X144625842Y-83881264D01*
X144625842Y-83881264D02*
X144665424Y-83894328D01*
X144665424Y-83894328D02*
X144740481Y-83928750D01*
X144740481Y-83928750D02*
X144835532Y-83977380D01*
X144835532Y-83977380D02*
X144845608Y-83982785D01*
X144845608Y-83982785D02*
X144973609Y-84046980D01*
X144973609Y-84046980D02*
X145061382Y-84078463D01*
X145061382Y-84078463D02*
X145115972Y-84078798D01*
X145115972Y-84078798D02*
X145144425Y-84049548D01*
X145144425Y-84049548D02*
X145144590Y-84049138D01*
X145144590Y-84049138D02*
X145158812Y-84014498D01*
X145158812Y-84014498D02*
X145192731Y-83932269D01*
X145192731Y-83932269D02*
X145243716Y-83808814D01*
X145243716Y-83808814D02*
X145309138Y-83650498D01*
X145309138Y-83650498D02*
X145386366Y-83463686D01*
X145386366Y-83463686D02*
X145472771Y-83254742D01*
X145472771Y-83254742D02*
X145556449Y-83052446D01*
X145556449Y-83052446D02*
X145648412Y-82829200D01*
X145648412Y-82829200D02*
X145732850Y-82622392D01*
X145732850Y-82622392D02*
X145807231Y-82438362D01*
X145807231Y-82438362D02*
X145869026Y-82283451D01*
X145869026Y-82283451D02*
X145915703Y-82163996D01*
X145915703Y-82163996D02*
X145944732Y-82086339D01*
X145944732Y-82086339D02*
X145953678Y-82057356D01*
X145953678Y-82057356D02*
X145931244Y-82024110D01*
X145931244Y-82024110D02*
X145872561Y-81971123D01*
X145872561Y-81971123D02*
X145794311Y-81912704D01*
X145794311Y-81912704D02*
X145571466Y-81727952D01*
X145571466Y-81727952D02*
X145397282Y-81516182D01*
X145397282Y-81516182D02*
X145273846Y-81281856D01*
X145273846Y-81281856D02*
X145203246Y-81029434D01*
X145203246Y-81029434D02*
X145187569Y-80763377D01*
X145187569Y-80763377D02*
X145198964Y-80640575D01*
X145198964Y-80640575D02*
X145261050Y-80385793D01*
X145261050Y-80385793D02*
X145367977Y-80160801D01*
X145367977Y-80160801D02*
X145513111Y-79967817D01*
X145513111Y-79967817D02*
X145689822Y-79809061D01*
X145689822Y-79809061D02*
X145891478Y-79686750D01*
X145891478Y-79686750D02*
X146111446Y-79603105D01*
X146111446Y-79603105D02*
X146343094Y-79560344D01*
X146343094Y-79560344D02*
X146579791Y-79560687D01*
X146579791Y-79560687D02*
X146814905Y-79606352D01*
X146814905Y-79606352D02*
X147041804Y-79699559D01*
X147041804Y-79699559D02*
X147253856Y-79842527D01*
X147253856Y-79842527D02*
X147342364Y-79923383D01*
X147342364Y-79923383D02*
X147512111Y-80131007D01*
X147512111Y-80131007D02*
X147630301Y-80357895D01*
X147630301Y-80357895D02*
X147697722Y-80597433D01*
X147697722Y-80597433D02*
X147715160Y-80843007D01*
X147715160Y-80843007D02*
X147683402Y-81088003D01*
X147683402Y-81088003D02*
X147603235Y-81325808D01*
X147603235Y-81325808D02*
X147475445Y-81549807D01*
X147475445Y-81549807D02*
X147300820Y-81753387D01*
X147300820Y-81753387D02*
X147105688Y-81912704D01*
X147105688Y-81912704D02*
X147024409Y-81973602D01*
X147024409Y-81973602D02*
X146966991Y-82026015D01*
X146966991Y-82026015D02*
X146946322Y-82057406D01*
X146946322Y-82057406D02*
X146957144Y-82091639D01*
X146957144Y-82091639D02*
X146987923Y-82173419D01*
X146987923Y-82173419D02*
X147036126Y-82296407D01*
X147036126Y-82296407D02*
X147099222Y-82454263D01*
X147099222Y-82454263D02*
X147174678Y-82640649D01*
X147174678Y-82640649D02*
X147259962Y-82849226D01*
X147259962Y-82849226D02*
X147343781Y-83052496D01*
X147343781Y-83052496D02*
X147436255Y-83275933D01*
X147436255Y-83275933D02*
X147521911Y-83482984D01*
X147521911Y-83482984D02*
X147598118Y-83667286D01*
X147598118Y-83667286D02*
X147662247Y-83822475D01*
X147662247Y-83822475D02*
X147711668Y-83942188D01*
X147711668Y-83942188D02*
X147743752Y-84020061D01*
X147743752Y-84020061D02*
X147755641Y-84049138D01*
X147755641Y-84049138D02*
X147783726Y-84078677D01*
X147783726Y-84078677D02*
X147838051Y-84078591D01*
X147838051Y-84078591D02*
X147925605Y-84047326D01*
X147925605Y-84047326D02*
X148053381Y-83983329D01*
X148053381Y-83983329D02*
X148054392Y-83982785D01*
X148054392Y-83982785D02*
X148150598Y-83933121D01*
X148150598Y-83933121D02*
X148228369Y-83896945D01*
X148228369Y-83896945D02*
X148272223Y-83881408D01*
X148272223Y-83881408D02*
X148274158Y-83881264D01*
X148274158Y-83881264D02*
X148307171Y-83897024D01*
X148307171Y-83897024D02*
X148380054Y-83940850D01*
X148380054Y-83940850D02*
X148484678Y-84007557D01*
X148484678Y-84007557D02*
X148612910Y-84091964D01*
X148612910Y-84091964D02*
X148755052Y-84187816D01*
X148755052Y-84187816D02*
X148899767Y-84284867D01*
X148899767Y-84284867D02*
X149030196Y-84369270D01*
X149030196Y-84369270D02*
X149137890Y-84435801D01*
X149137890Y-84435801D02*
X149214402Y-84479238D01*
X149214402Y-84479238D02*
X149250938Y-84494368D01*
X149250938Y-84494368D02*
X149284582Y-84474482D01*
X149284582Y-84474482D02*
X149352224Y-84418903D01*
X149352224Y-84418903D02*
X149447107Y-84333754D01*
X149447107Y-84333754D02*
X149562470Y-84225153D01*
X149562470Y-84225153D02*
X149691555Y-84099221D01*
X149691555Y-84099221D02*
X149733771Y-84057149D01*
X149733771Y-84057149D02*
X150170261Y-83619931D01*
X150170261Y-83619931D02*
X149838023Y-83132340D01*
X149838023Y-83132340D02*
X149737054Y-82982605D01*
X149737054Y-82982605D02*
X149648438Y-82848220D01*
X149648438Y-82848220D02*
X149577146Y-82736969D01*
X149577146Y-82736969D02*
X149528150Y-82656639D01*
X149528150Y-82656639D02*
X149506422Y-82615014D01*
X149506422Y-82615014D02*
X149505785Y-82612053D01*
X149505785Y-82612053D02*
X149517240Y-82572818D01*
X149517240Y-82572818D02*
X149548051Y-82493895D01*
X149548051Y-82493895D02*
X149592884Y-82388509D01*
X149592884Y-82388509D02*
X149624353Y-82317954D01*
X149624353Y-82317954D02*
X149683192Y-82182876D01*
X149683192Y-82182876D02*
X149738604Y-82046409D01*
X149738604Y-82046409D02*
X149781564Y-81931103D01*
X149781564Y-81931103D02*
X149793234Y-81895977D01*
X149793234Y-81895977D02*
X149826389Y-81802174D01*
X149826389Y-81802174D02*
X149858799Y-81729694D01*
X149858799Y-81729694D02*
X149876601Y-81702301D01*
X149876601Y-81702301D02*
X149915886Y-81685536D01*
X149915886Y-81685536D02*
X150001626Y-81661770D01*
X150001626Y-81661770D02*
X150122697Y-81633697D01*
X150122697Y-81633697D02*
X150267973Y-81604009D01*
X150267973Y-81604009D02*
X150332988Y-81591806D01*
X150332988Y-81591806D02*
X150498087Y-81561468D01*
X150498087Y-81561468D02*
X150656448Y-81532093D01*
X150656448Y-81532093D02*
X150792596Y-81506569D01*
X150792596Y-81506569D02*
X150891057Y-81487785D01*
X150891057Y-81487785D02*
X150909598Y-81484160D01*
X150909598Y-81484160D02*
X151062873Y-81453906D01*
X151062873Y-81453906D02*
X151062873Y-80815645D01*
X151062873Y-80815645D02*
X151062529Y-80605770D01*
X151062529Y-80605770D02*
X151061116Y-80446980D01*
X151061116Y-80446980D02*
X151058064Y-80331973D01*
X151058064Y-80331973D02*
X151052803Y-80253446D01*
X151052803Y-80253446D02*
X151044763Y-80204096D01*
X151044763Y-80204096D02*
X151033373Y-80176619D01*
X151033373Y-80176619D02*
X151018063Y-80163713D01*
X151018063Y-80163713D02*
X151011782Y-80161320D01*
X151011782Y-80161320D02*
X150973896Y-80152833D01*
X150973896Y-80152833D02*
X150890195Y-80135900D01*
X150890195Y-80135900D02*
X150771433Y-80112566D01*
X150771433Y-80112566D02*
X150628361Y-80084875D01*
X150628361Y-80084875D02*
X150471732Y-80054873D01*
X150471732Y-80054873D02*
X150312297Y-80024604D01*
X150312297Y-80024604D02*
X150160809Y-79996115D01*
X150160809Y-79996115D02*
X150028019Y-79971449D01*
X150028019Y-79971449D02*
X149924681Y-79952651D01*
X149924681Y-79952651D02*
X149861545Y-79941767D01*
X149861545Y-79941767D02*
X149847497Y-79939885D01*
X149847497Y-79939885D02*
X149834770Y-79914704D01*
X149834770Y-79914704D02*
X149806600Y-79847622D01*
X149806600Y-79847622D02*
X149768252Y-79751333D01*
X149768252Y-79751333D02*
X149753609Y-79713621D01*
X149753609Y-79713621D02*
X149694548Y-79567921D01*
X149694548Y-79567921D02*
X149625000Y-79406951D01*
X149625000Y-79406951D02*
X149562712Y-79271291D01*
X149562712Y-79271291D02*
X149516879Y-79167561D01*
X149516879Y-79167561D02*
X149486387Y-79082326D01*
X149486387Y-79082326D02*
X149476208Y-79030126D01*
X149476208Y-79030126D02*
X149477831Y-79023130D01*
X149477831Y-79023130D02*
X149499343Y-78990102D01*
X149499343Y-78990102D02*
X149548465Y-78916643D01*
X149548465Y-78916643D02*
X149619923Y-78810577D01*
X149619923Y-78810577D02*
X149708445Y-78679726D01*
X149708445Y-78679726D02*
X149808759Y-78531912D01*
X149808759Y-78531912D02*
X149828594Y-78502734D01*
X149828594Y-78502734D02*
X149944988Y-78329863D01*
X149944988Y-78329863D02*
X150030548Y-78198226D01*
X150030548Y-78198226D02*
X150088684Y-78101761D01*
X150088684Y-78101761D02*
X150122808Y-78034408D01*
X150122808Y-78034408D02*
X150136331Y-77990106D01*
X150136331Y-77990106D02*
X150132664Y-77962794D01*
X150132664Y-77962794D02*
X150132570Y-77962620D01*
X150132570Y-77962620D02*
X150103707Y-77926746D01*
X150103707Y-77926746D02*
X150039867Y-77857391D01*
X150039867Y-77857391D02*
X149947969Y-77761745D01*
X149947969Y-77761745D02*
X149834933Y-77646999D01*
X149834933Y-77646999D02*
X149707679Y-77520341D01*
X149707679Y-77520341D02*
X149693328Y-77506205D01*
X149693328Y-77506205D02*
X149532957Y-77350903D01*
X149532957Y-77350903D02*
X149409195Y-77236870D01*
X149409195Y-77236870D02*
X149319555Y-77162002D01*
X149319555Y-77162002D02*
X149261552Y-77124196D01*
X149261552Y-77124196D02*
X149236004Y-77119317D01*
X149236004Y-77119317D02*
X149198718Y-77140603D01*
X149198718Y-77140603D02*
X149121343Y-77189773D01*
X149121343Y-77189773D02*
X149011867Y-77261575D01*
X149011867Y-77261575D02*
X148878280Y-77350755D01*
X148878280Y-77350755D02*
X148728570Y-77452063D01*
X148728570Y-77452063D02*
X148693618Y-77475897D01*
X148693618Y-77475897D02*
X148197390Y-77814765D01*
X148197390Y-77814765D02*
X147973293Y-77713056D01*
X147973293Y-77713056D02*
X147837011Y-77653783D01*
X147837011Y-77653783D02*
X147690724Y-77594170D01*
X147690724Y-77594170D02*
X147564965Y-77546640D01*
X147564965Y-77546640D02*
X147559425Y-77544685D01*
X147559425Y-77544685D02*
X147461057Y-77508677D01*
X147461057Y-77508677D02*
X147385229Y-77478229D01*
X147385229Y-77478229D02*
X147348282Y-77459905D01*
X147348282Y-77459905D02*
X147348220Y-77459852D01*
X147348220Y-77459852D02*
X147336496Y-77426729D01*
X147336496Y-77426729D02*
X147316568Y-77345267D01*
X147316568Y-77345267D02*
X147290413Y-77224625D01*
X147290413Y-77224625D02*
X147260010Y-77073959D01*
X147260010Y-77073959D02*
X147227337Y-76902428D01*
X147227337Y-76902428D02*
X147224664Y-76887967D01*
X147224664Y-76887967D02*
X147191890Y-76711235D01*
X147191890Y-76711235D02*
X147161802Y-76550810D01*
X147161802Y-76550810D02*
X147136339Y-76416888D01*
X147136339Y-76416888D02*
X147117441Y-76319663D01*
X147117441Y-76319663D02*
X147107047Y-76269332D01*
X147107047Y-76269332D02*
X147106865Y-76268563D01*
X147106865Y-76268563D02*
X147100539Y-76247153D01*
X147100539Y-76247153D02*
X147088239Y-76230988D01*
X147088239Y-76230988D02*
X147062594Y-76219331D01*
X147062594Y-76219331D02*
X147016235Y-76211445D01*
X147016235Y-76211445D02*
X146941792Y-76206593D01*
X146941792Y-76206593D02*
X146831895Y-76204039D01*
X146831895Y-76204039D02*
X146679175Y-76203045D01*
X146679175Y-76203045D02*
X146476262Y-76202874D01*
X146476262Y-76202874D02*
X146450000Y-76202874D01*
X146450000Y-76202874D02*
X146240986Y-76202998D01*
X146240986Y-76202998D02*
X146240986Y-76202998D01*
G36*
X146679175Y-76203045D02*
G01*
X146831895Y-76204039D01*
X146941792Y-76206593D01*
X147016235Y-76211445D01*
X147062594Y-76219331D01*
X147088239Y-76230988D01*
X147100539Y-76247153D01*
X147106865Y-76268563D01*
X147107047Y-76269332D01*
X147117441Y-76319663D01*
X147136339Y-76416888D01*
X147161802Y-76550810D01*
X147191890Y-76711235D01*
X147224664Y-76887967D01*
X147227337Y-76902428D01*
X147260010Y-77073959D01*
X147290413Y-77224625D01*
X147316568Y-77345267D01*
X147336496Y-77426729D01*
X147348220Y-77459852D01*
X147348282Y-77459905D01*
X147385229Y-77478229D01*
X147461057Y-77508677D01*
X147559425Y-77544685D01*
X147564965Y-77546640D01*
X147690724Y-77594170D01*
X147837011Y-77653783D01*
X147973293Y-77713056D01*
X148197390Y-77814765D01*
X148693618Y-77475897D01*
X148728570Y-77452063D01*
X148878280Y-77350755D01*
X149011867Y-77261575D01*
X149121343Y-77189773D01*
X149198718Y-77140603D01*
X149236004Y-77119317D01*
X149261552Y-77124196D01*
X149319555Y-77162002D01*
X149409195Y-77236870D01*
X149532957Y-77350903D01*
X149693328Y-77506205D01*
X149707679Y-77520341D01*
X149834933Y-77646999D01*
X149947969Y-77761745D01*
X150039867Y-77857391D01*
X150103707Y-77926746D01*
X150132570Y-77962620D01*
X150132664Y-77962794D01*
X150136331Y-77990106D01*
X150122808Y-78034408D01*
X150088684Y-78101761D01*
X150030548Y-78198226D01*
X149944988Y-78329863D01*
X149828594Y-78502734D01*
X149808759Y-78531912D01*
X149708445Y-78679726D01*
X149619923Y-78810577D01*
X149548465Y-78916643D01*
X149499343Y-78990102D01*
X149477831Y-79023130D01*
X149476208Y-79030126D01*
X149486387Y-79082326D01*
X149516879Y-79167561D01*
X149562712Y-79271291D01*
X149625000Y-79406951D01*
X149694548Y-79567921D01*
X149753609Y-79713621D01*
X149768252Y-79751333D01*
X149806600Y-79847622D01*
X149834770Y-79914704D01*
X149847497Y-79939885D01*
X149861545Y-79941767D01*
X149924681Y-79952651D01*
X150028019Y-79971449D01*
X150160809Y-79996115D01*
X150312297Y-80024604D01*
X150471732Y-80054873D01*
X150628361Y-80084875D01*
X150771433Y-80112566D01*
X150890195Y-80135900D01*
X150973896Y-80152833D01*
X151011782Y-80161320D01*
X151018063Y-80163713D01*
X151033373Y-80176619D01*
X151044763Y-80204096D01*
X151052803Y-80253446D01*
X151058064Y-80331973D01*
X151061116Y-80446980D01*
X151062529Y-80605770D01*
X151062873Y-80815645D01*
X151062873Y-81453906D01*
X150909598Y-81484160D01*
X150891057Y-81487785D01*
X150792596Y-81506569D01*
X150656448Y-81532093D01*
X150498087Y-81561468D01*
X150332988Y-81591806D01*
X150267973Y-81604009D01*
X150122697Y-81633697D01*
X150001626Y-81661770D01*
X149915886Y-81685536D01*
X149876601Y-81702301D01*
X149858799Y-81729694D01*
X149826389Y-81802174D01*
X149793234Y-81895977D01*
X149781564Y-81931103D01*
X149738604Y-82046409D01*
X149683192Y-82182876D01*
X149624353Y-82317954D01*
X149592884Y-82388509D01*
X149548051Y-82493895D01*
X149517240Y-82572818D01*
X149505785Y-82612053D01*
X149506422Y-82615014D01*
X149528150Y-82656639D01*
X149577146Y-82736969D01*
X149648438Y-82848220D01*
X149737054Y-82982605D01*
X149838023Y-83132340D01*
X150170261Y-83619931D01*
X149733771Y-84057149D01*
X149691555Y-84099221D01*
X149562470Y-84225153D01*
X149447107Y-84333754D01*
X149352224Y-84418903D01*
X149284582Y-84474482D01*
X149250938Y-84494368D01*
X149214402Y-84479238D01*
X149137890Y-84435801D01*
X149030196Y-84369270D01*
X148899767Y-84284867D01*
X148755052Y-84187816D01*
X148612910Y-84091964D01*
X148484678Y-84007557D01*
X148380054Y-83940850D01*
X148307171Y-83897024D01*
X148274158Y-83881264D01*
X148272223Y-83881408D01*
X148228369Y-83896945D01*
X148150598Y-83933121D01*
X148054392Y-83982785D01*
X148053381Y-83983329D01*
X147925605Y-84047326D01*
X147838051Y-84078591D01*
X147783726Y-84078677D01*
X147755641Y-84049138D01*
X147743752Y-84020061D01*
X147711668Y-83942188D01*
X147662247Y-83822475D01*
X147598118Y-83667286D01*
X147521911Y-83482984D01*
X147436255Y-83275933D01*
X147343781Y-83052496D01*
X147259962Y-82849226D01*
X147174678Y-82640649D01*
X147099222Y-82454263D01*
X147036126Y-82296407D01*
X146987923Y-82173419D01*
X146957144Y-82091639D01*
X146946322Y-82057406D01*
X146966991Y-82026015D01*
X147024409Y-81973602D01*
X147105688Y-81912704D01*
X147300820Y-81753387D01*
X147475445Y-81549807D01*
X147603235Y-81325808D01*
X147683402Y-81088003D01*
X147715160Y-80843007D01*
X147697722Y-80597433D01*
X147630301Y-80357895D01*
X147512111Y-80131007D01*
X147342364Y-79923383D01*
X147253856Y-79842527D01*
X147041804Y-79699559D01*
X146814905Y-79606352D01*
X146579791Y-79560687D01*
X146343094Y-79560344D01*
X146111446Y-79603105D01*
X145891478Y-79686750D01*
X145689822Y-79809061D01*
X145513111Y-79967817D01*
X145367977Y-80160801D01*
X145261050Y-80385793D01*
X145198964Y-80640575D01*
X145187569Y-80763377D01*
X145203246Y-81029434D01*
X145273846Y-81281856D01*
X145397282Y-81516182D01*
X145571466Y-81727952D01*
X145794311Y-81912704D01*
X145872561Y-81971123D01*
X145931244Y-82024110D01*
X145953678Y-82057356D01*
X145944732Y-82086339D01*
X145915703Y-82163996D01*
X145869026Y-82283451D01*
X145807231Y-82438362D01*
X145732850Y-82622392D01*
X145648412Y-82829200D01*
X145556449Y-83052446D01*
X145472771Y-83254742D01*
X145386366Y-83463686D01*
X145309138Y-83650498D01*
X145243716Y-83808814D01*
X145192731Y-83932269D01*
X145158812Y-84014498D01*
X145144590Y-84049138D01*
X145144425Y-84049548D01*
X145115972Y-84078798D01*
X145061382Y-84078463D01*
X144973609Y-84046980D01*
X144845608Y-83982785D01*
X144835532Y-83977380D01*
X144740481Y-83928750D01*
X144665424Y-83894328D01*
X144625842Y-83881264D01*
X144593400Y-83896702D01*
X144520895Y-83940258D01*
X144416565Y-84006751D01*
X144288539Y-84090998D01*
X144144948Y-84187816D01*
X144003468Y-84282734D01*
X143872611Y-84367490D01*
X143764292Y-84434496D01*
X143686960Y-84478529D01*
X143649062Y-84494368D01*
X143642607Y-84492357D01*
X143597609Y-84460658D01*
X143520727Y-84395181D01*
X143418721Y-84302048D01*
X143298351Y-84187381D01*
X143166379Y-84057300D01*
X142730039Y-83620232D01*
X143409733Y-82620440D01*
X143306402Y-82396886D01*
X143306096Y-82396225D01*
X143244046Y-82253714D01*
X143180640Y-82095018D01*
X143129558Y-81954368D01*
X143121827Y-81931683D01*
X143082852Y-81826370D01*
X143047707Y-81744534D01*
X143023195Y-81702301D01*
X143013212Y-81696337D01*
X142953286Y-81676329D01*
X142851532Y-81650442D01*
X142719068Y-81621370D01*
X142567011Y-81591806D01*
X142521466Y-81583467D01*
X142356685Y-81553107D01*
X142202930Y-81524509D01*
X142075678Y-81500564D01*
X141990402Y-81484160D01*
X141837126Y-81453906D01*
X141837126Y-80815645D01*
X141837160Y-80737165D01*
X141837808Y-80545703D01*
X141839720Y-80402812D01*
X141843469Y-80301189D01*
X141849622Y-80233531D01*
X141858751Y-80192536D01*
X141871427Y-80170900D01*
X141888218Y-80161320D01*
X141904474Y-80157439D01*
X141970748Y-80143710D01*
X142076479Y-80122745D01*
X142210915Y-80096588D01*
X142363302Y-80067283D01*
X142522890Y-80036877D01*
X142678925Y-80007413D01*
X142820657Y-79980937D01*
X142937331Y-79959494D01*
X143018197Y-79945128D01*
X143052503Y-79939885D01*
X143054822Y-79936720D01*
X143073474Y-79895642D01*
X143105753Y-79817044D01*
X143146391Y-79713621D01*
X143202788Y-79574273D01*
X143272214Y-79413226D01*
X143337288Y-79271291D01*
X143352202Y-79239432D01*
X143394047Y-79139669D01*
X143419118Y-79062721D01*
X143422426Y-79023130D01*
X143420720Y-79020325D01*
X143393631Y-78979005D01*
X143339927Y-78898740D01*
X143264877Y-78787350D01*
X143173746Y-78652655D01*
X143071800Y-78502476D01*
X142956930Y-78331851D01*
X142870761Y-78199311D01*
X142812131Y-78102112D01*
X142777650Y-78034234D01*
X142763926Y-77989656D01*
X142767568Y-77962361D01*
X142768794Y-77960313D01*
X142801747Y-77920536D01*
X142868927Y-77848052D01*
X142963419Y-77750046D01*
X143078306Y-77633702D01*
X143206672Y-77506205D01*
X143339831Y-77376821D01*
X143470269Y-77255209D01*
X143566119Y-77173156D01*
X143629866Y-77128560D01*
X143663996Y-77119317D01*
X143668456Y-77121393D01*
X143715421Y-77149385D01*
X143800685Y-77204084D01*
X143916259Y-77280237D01*
X144054154Y-77372592D01*
X144206381Y-77475897D01*
X144702610Y-77814765D01*
X144926707Y-77713056D01*
X144933219Y-77710109D01*
X145070804Y-77650504D01*
X145216767Y-77591222D01*
X145340575Y-77544685D01*
X145341122Y-77544493D01*
X145439414Y-77508497D01*
X145515081Y-77478095D01*
X145551780Y-77459852D01*
X145552374Y-77459190D01*
X145564833Y-77421831D01*
X145585336Y-77336871D01*
X145611907Y-77213469D01*
X145642567Y-77060782D01*
X145675336Y-76887967D01*
X145676478Y-76881774D01*
X145709193Y-76705431D01*
X145739155Y-76545743D01*
X145764425Y-76412905D01*
X145783065Y-76317113D01*
X145793135Y-76268563D01*
X145793779Y-76265873D01*
X145800408Y-76245088D01*
X145813841Y-76229466D01*
X145841446Y-76218270D01*
X145890593Y-76210762D01*
X145968653Y-76206205D01*
X146082994Y-76203863D01*
X146240986Y-76202998D01*
X146450000Y-76202874D01*
X146476262Y-76202874D01*
X146679175Y-76203045D01*
G37*
X146679175Y-76203045D02*
X146831895Y-76204039D01*
X146941792Y-76206593D01*
X147016235Y-76211445D01*
X147062594Y-76219331D01*
X147088239Y-76230988D01*
X147100539Y-76247153D01*
X147106865Y-76268563D01*
X147107047Y-76269332D01*
X147117441Y-76319663D01*
X147136339Y-76416888D01*
X147161802Y-76550810D01*
X147191890Y-76711235D01*
X147224664Y-76887967D01*
X147227337Y-76902428D01*
X147260010Y-77073959D01*
X147290413Y-77224625D01*
X147316568Y-77345267D01*
X147336496Y-77426729D01*
X147348220Y-77459852D01*
X147348282Y-77459905D01*
X147385229Y-77478229D01*
X147461057Y-77508677D01*
X147559425Y-77544685D01*
X147564965Y-77546640D01*
X147690724Y-77594170D01*
X147837011Y-77653783D01*
X147973293Y-77713056D01*
X148197390Y-77814765D01*
X148693618Y-77475897D01*
X148728570Y-77452063D01*
X148878280Y-77350755D01*
X149011867Y-77261575D01*
X149121343Y-77189773D01*
X149198718Y-77140603D01*
X149236004Y-77119317D01*
X149261552Y-77124196D01*
X149319555Y-77162002D01*
X149409195Y-77236870D01*
X149532957Y-77350903D01*
X149693328Y-77506205D01*
X149707679Y-77520341D01*
X149834933Y-77646999D01*
X149947969Y-77761745D01*
X150039867Y-77857391D01*
X150103707Y-77926746D01*
X150132570Y-77962620D01*
X150132664Y-77962794D01*
X150136331Y-77990106D01*
X150122808Y-78034408D01*
X150088684Y-78101761D01*
X150030548Y-78198226D01*
X149944988Y-78329863D01*
X149828594Y-78502734D01*
X149808759Y-78531912D01*
X149708445Y-78679726D01*
X149619923Y-78810577D01*
X149548465Y-78916643D01*
X149499343Y-78990102D01*
X149477831Y-79023130D01*
X149476208Y-79030126D01*
X149486387Y-79082326D01*
X149516879Y-79167561D01*
X149562712Y-79271291D01*
X149625000Y-79406951D01*
X149694548Y-79567921D01*
X149753609Y-79713621D01*
X149768252Y-79751333D01*
X149806600Y-79847622D01*
X149834770Y-79914704D01*
X149847497Y-79939885D01*
X149861545Y-79941767D01*
X149924681Y-79952651D01*
X150028019Y-79971449D01*
X150160809Y-79996115D01*
X150312297Y-80024604D01*
X150471732Y-80054873D01*
X150628361Y-80084875D01*
X150771433Y-80112566D01*
X150890195Y-80135900D01*
X150973896Y-80152833D01*
X151011782Y-80161320D01*
X151018063Y-80163713D01*
X151033373Y-80176619D01*
X151044763Y-80204096D01*
X151052803Y-80253446D01*
X151058064Y-80331973D01*
X151061116Y-80446980D01*
X151062529Y-80605770D01*
X151062873Y-80815645D01*
X151062873Y-81453906D01*
X150909598Y-81484160D01*
X150891057Y-81487785D01*
X150792596Y-81506569D01*
X150656448Y-81532093D01*
X150498087Y-81561468D01*
X150332988Y-81591806D01*
X150267973Y-81604009D01*
X150122697Y-81633697D01*
X150001626Y-81661770D01*
X149915886Y-81685536D01*
X149876601Y-81702301D01*
X149858799Y-81729694D01*
X149826389Y-81802174D01*
X149793234Y-81895977D01*
X149781564Y-81931103D01*
X149738604Y-82046409D01*
X149683192Y-82182876D01*
X149624353Y-82317954D01*
X149592884Y-82388509D01*
X149548051Y-82493895D01*
X149517240Y-82572818D01*
X149505785Y-82612053D01*
X149506422Y-82615014D01*
X149528150Y-82656639D01*
X149577146Y-82736969D01*
X149648438Y-82848220D01*
X149737054Y-82982605D01*
X149838023Y-83132340D01*
X150170261Y-83619931D01*
X149733771Y-84057149D01*
X149691555Y-84099221D01*
X149562470Y-84225153D01*
X149447107Y-84333754D01*
X149352224Y-84418903D01*
X149284582Y-84474482D01*
X149250938Y-84494368D01*
X149214402Y-84479238D01*
X149137890Y-84435801D01*
X149030196Y-84369270D01*
X148899767Y-84284867D01*
X148755052Y-84187816D01*
X148612910Y-84091964D01*
X148484678Y-84007557D01*
X148380054Y-83940850D01*
X148307171Y-83897024D01*
X148274158Y-83881264D01*
X148272223Y-83881408D01*
X148228369Y-83896945D01*
X148150598Y-83933121D01*
X148054392Y-83982785D01*
X148053381Y-83983329D01*
X147925605Y-84047326D01*
X147838051Y-84078591D01*
X147783726Y-84078677D01*
X147755641Y-84049138D01*
X147743752Y-84020061D01*
X147711668Y-83942188D01*
X147662247Y-83822475D01*
X147598118Y-83667286D01*
X147521911Y-83482984D01*
X147436255Y-83275933D01*
X147343781Y-83052496D01*
X147259962Y-82849226D01*
X147174678Y-82640649D01*
X147099222Y-82454263D01*
X147036126Y-82296407D01*
X146987923Y-82173419D01*
X146957144Y-82091639D01*
X146946322Y-82057406D01*
X146966991Y-82026015D01*
X147024409Y-81973602D01*
X147105688Y-81912704D01*
X147300820Y-81753387D01*
X147475445Y-81549807D01*
X147603235Y-81325808D01*
X147683402Y-81088003D01*
X147715160Y-80843007D01*
X147697722Y-80597433D01*
X147630301Y-80357895D01*
X147512111Y-80131007D01*
X147342364Y-79923383D01*
X147253856Y-79842527D01*
X147041804Y-79699559D01*
X146814905Y-79606352D01*
X146579791Y-79560687D01*
X146343094Y-79560344D01*
X146111446Y-79603105D01*
X145891478Y-79686750D01*
X145689822Y-79809061D01*
X145513111Y-79967817D01*
X145367977Y-80160801D01*
X145261050Y-80385793D01*
X145198964Y-80640575D01*
X145187569Y-80763377D01*
X145203246Y-81029434D01*
X145273846Y-81281856D01*
X145397282Y-81516182D01*
X145571466Y-81727952D01*
X145794311Y-81912704D01*
X145872561Y-81971123D01*
X145931244Y-82024110D01*
X145953678Y-82057356D01*
X145944732Y-82086339D01*
X145915703Y-82163996D01*
X145869026Y-82283451D01*
X145807231Y-82438362D01*
X145732850Y-82622392D01*
X145648412Y-82829200D01*
X145556449Y-83052446D01*
X145472771Y-83254742D01*
X145386366Y-83463686D01*
X145309138Y-83650498D01*
X145243716Y-83808814D01*
X145192731Y-83932269D01*
X145158812Y-84014498D01*
X145144590Y-84049138D01*
X145144425Y-84049548D01*
X145115972Y-84078798D01*
X145061382Y-84078463D01*
X144973609Y-84046980D01*
X144845608Y-83982785D01*
X144835532Y-83977380D01*
X144740481Y-83928750D01*
X144665424Y-83894328D01*
X144625842Y-83881264D01*
X144593400Y-83896702D01*
X144520895Y-83940258D01*
X144416565Y-84006751D01*
X144288539Y-84090998D01*
X144144948Y-84187816D01*
X144003468Y-84282734D01*
X143872611Y-84367490D01*
X143764292Y-84434496D01*
X143686960Y-84478529D01*
X143649062Y-84494368D01*
X143642607Y-84492357D01*
X143597609Y-84460658D01*
X143520727Y-84395181D01*
X143418721Y-84302048D01*
X143298351Y-84187381D01*
X143166379Y-84057300D01*
X142730039Y-83620232D01*
X143409733Y-82620440D01*
X143306402Y-82396886D01*
X143306096Y-82396225D01*
X143244046Y-82253714D01*
X143180640Y-82095018D01*
X143129558Y-81954368D01*
X143121827Y-81931683D01*
X143082852Y-81826370D01*
X143047707Y-81744534D01*
X143023195Y-81702301D01*
X143013212Y-81696337D01*
X142953286Y-81676329D01*
X142851532Y-81650442D01*
X142719068Y-81621370D01*
X142567011Y-81591806D01*
X142521466Y-81583467D01*
X142356685Y-81553107D01*
X142202930Y-81524509D01*
X142075678Y-81500564D01*
X141990402Y-81484160D01*
X141837126Y-81453906D01*
X141837126Y-80815645D01*
X141837160Y-80737165D01*
X141837808Y-80545703D01*
X141839720Y-80402812D01*
X141843469Y-80301189D01*
X141849622Y-80233531D01*
X141858751Y-80192536D01*
X141871427Y-80170900D01*
X141888218Y-80161320D01*
X141904474Y-80157439D01*
X141970748Y-80143710D01*
X142076479Y-80122745D01*
X142210915Y-80096588D01*
X142363302Y-80067283D01*
X142522890Y-80036877D01*
X142678925Y-80007413D01*
X142820657Y-79980937D01*
X142937331Y-79959494D01*
X143018197Y-79945128D01*
X143052503Y-79939885D01*
X143054822Y-79936720D01*
X143073474Y-79895642D01*
X143105753Y-79817044D01*
X143146391Y-79713621D01*
X143202788Y-79574273D01*
X143272214Y-79413226D01*
X143337288Y-79271291D01*
X143352202Y-79239432D01*
X143394047Y-79139669D01*
X143419118Y-79062721D01*
X143422426Y-79023130D01*
X143420720Y-79020325D01*
X143393631Y-78979005D01*
X143339927Y-78898740D01*
X143264877Y-78787350D01*
X143173746Y-78652655D01*
X143071800Y-78502476D01*
X142956930Y-78331851D01*
X142870761Y-78199311D01*
X142812131Y-78102112D01*
X142777650Y-78034234D01*
X142763926Y-77989656D01*
X142767568Y-77962361D01*
X142768794Y-77960313D01*
X142801747Y-77920536D01*
X142868927Y-77848052D01*
X142963419Y-77750046D01*
X143078306Y-77633702D01*
X143206672Y-77506205D01*
X143339831Y-77376821D01*
X143470269Y-77255209D01*
X143566119Y-77173156D01*
X143629866Y-77128560D01*
X143663996Y-77119317D01*
X143668456Y-77121393D01*
X143715421Y-77149385D01*
X143800685Y-77204084D01*
X143916259Y-77280237D01*
X144054154Y-77372592D01*
X144206381Y-77475897D01*
X144702610Y-77814765D01*
X144926707Y-77713056D01*
X144933219Y-77710109D01*
X145070804Y-77650504D01*
X145216767Y-77591222D01*
X145340575Y-77544685D01*
X145341122Y-77544493D01*
X145439414Y-77508497D01*
X145515081Y-77478095D01*
X145551780Y-77459852D01*
X145552374Y-77459190D01*
X145564833Y-77421831D01*
X145585336Y-77336871D01*
X145611907Y-77213469D01*
X145642567Y-77060782D01*
X145675336Y-76887967D01*
X145676478Y-76881774D01*
X145709193Y-76705431D01*
X145739155Y-76545743D01*
X145764425Y-76412905D01*
X145783065Y-76317113D01*
X145793135Y-76268563D01*
X145793779Y-76265873D01*
X145800408Y-76245088D01*
X145813841Y-76229466D01*
X145841446Y-76218270D01*
X145890593Y-76210762D01*
X145968653Y-76206205D01*
X146082994Y-76203863D01*
X146240986Y-76202998D01*
X146450000Y-76202874D01*
X146476262Y-76202874D01*
X146679175Y-76203045D01*
X151278100Y-85611903D02*
X151166550Y-85667522D01*
X151166550Y-85667522D02*
X151068092Y-85769931D01*
X151068092Y-85769931D02*
X151040977Y-85807864D01*
X151040977Y-85807864D02*
X151011438Y-85857500D01*
X151011438Y-85857500D02*
X150992272Y-85911412D01*
X150992272Y-85911412D02*
X150981307Y-85983364D01*
X150981307Y-85983364D02*
X150976371Y-86087122D01*
X150976371Y-86087122D02*
X150975287Y-86224101D01*
X150975287Y-86224101D02*
X150980182Y-86411815D01*
X150980182Y-86411815D02*
X150997196Y-86552758D01*
X150997196Y-86552758D02*
X151029823Y-86657908D01*
X151029823Y-86657908D02*
X151081558Y-86738243D01*
X151081558Y-86738243D02*
X151155896Y-86804741D01*
X151155896Y-86804741D02*
X151161358Y-86808678D01*
X151161358Y-86808678D02*
X151234620Y-86848953D01*
X151234620Y-86848953D02*
X151322840Y-86868880D01*
X151322840Y-86868880D02*
X151435038Y-86873793D01*
X151435038Y-86873793D02*
X151617433Y-86873793D01*
X151617433Y-86873793D02*
X151617509Y-87050857D01*
X151617509Y-87050857D02*
X151619207Y-87149470D01*
X151619207Y-87149470D02*
X151629550Y-87207314D01*
X151629550Y-87207314D02*
X151656578Y-87242006D01*
X151656578Y-87242006D02*
X151708332Y-87271164D01*
X151708332Y-87271164D02*
X151720761Y-87277121D01*
X151720761Y-87277121D02*
X151778923Y-87305039D01*
X151778923Y-87305039D02*
X151823956Y-87322672D01*
X151823956Y-87322672D02*
X151857441Y-87324194D01*
X151857441Y-87324194D02*
X151880962Y-87303781D01*
X151880962Y-87303781D02*
X151896100Y-87255607D01*
X151896100Y-87255607D02*
X151904437Y-87173846D01*
X151904437Y-87173846D02*
X151907556Y-87052672D01*
X151907556Y-87052672D02*
X151907040Y-86886260D01*
X151907040Y-86886260D02*
X151904471Y-86668785D01*
X151904471Y-86668785D02*
X151903668Y-86603736D01*
X151903668Y-86603736D02*
X151900778Y-86379502D01*
X151900778Y-86379502D02*
X151898188Y-86232821D01*
X151898188Y-86232821D02*
X151617586Y-86232821D01*
X151617586Y-86232821D02*
X151616009Y-86357326D01*
X151616009Y-86357326D02*
X151609000Y-86438787D01*
X151609000Y-86438787D02*
X151593142Y-86492515D01*
X151593142Y-86492515D02*
X151565019Y-86533823D01*
X151565019Y-86533823D02*
X151545925Y-86553971D01*
X151545925Y-86553971D02*
X151467865Y-86612921D01*
X151467865Y-86612921D02*
X151398753Y-86617720D01*
X151398753Y-86617720D02*
X151327440Y-86569038D01*
X151327440Y-86569038D02*
X151325632Y-86567241D01*
X151325632Y-86567241D02*
X151296617Y-86529618D01*
X151296617Y-86529618D02*
X151278967Y-86478484D01*
X151278967Y-86478484D02*
X151270064Y-86399738D01*
X151270064Y-86399738D02*
X151267291Y-86279276D01*
X151267291Y-86279276D02*
X151267241Y-86252588D01*
X151267241Y-86252588D02*
X151273942Y-86086583D01*
X151273942Y-86086583D02*
X151295752Y-85971505D01*
X151295752Y-85971505D02*
X151335235Y-85901254D01*
X151335235Y-85901254D02*
X151394956Y-85869729D01*
X151394956Y-85869729D02*
X151429472Y-85866552D01*
X151429472Y-85866552D02*
X151511389Y-85881460D01*
X151511389Y-85881460D02*
X151567579Y-85930548D01*
X151567579Y-85930548D02*
X151601402Y-86020362D01*
X151601402Y-86020362D02*
X151616220Y-86157445D01*
X151616220Y-86157445D02*
X151617586Y-86232821D01*
X151617586Y-86232821D02*
X151898188Y-86232821D01*
X151898188Y-86232821D02*
X151897713Y-86205952D01*
X151897713Y-86205952D02*
X151893753Y-86075382D01*
X151893753Y-86075382D02*
X151888174Y-85980087D01*
X151888174Y-85980087D02*
X151880254Y-85912364D01*
X151880254Y-85912364D02*
X151869269Y-85864507D01*
X151869269Y-85864507D02*
X151854499Y-85828813D01*
X151854499Y-85828813D02*
X151835218Y-85797578D01*
X151835218Y-85797578D02*
X151826951Y-85785824D01*
X151826951Y-85785824D02*
X151717288Y-85674797D01*
X151717288Y-85674797D02*
X151578635Y-85611847D01*
X151578635Y-85611847D02*
X151418246Y-85594297D01*
X151418246Y-85594297D02*
X151278100Y-85611903D01*
X151278100Y-85611903D02*
X151278100Y-85611903D01*
G36*
X151903668Y-86603736D02*
G01*
X151904471Y-86668785D01*
X151907040Y-86886260D01*
X151907556Y-87052672D01*
X151904437Y-87173846D01*
X151896100Y-87255607D01*
X151880962Y-87303781D01*
X151857441Y-87324194D01*
X151823956Y-87322672D01*
X151778923Y-87305039D01*
X151720761Y-87277121D01*
X151708332Y-87271164D01*
X151656578Y-87242006D01*
X151629550Y-87207314D01*
X151619207Y-87149470D01*
X151617509Y-87050857D01*
X151617433Y-86873793D01*
X151435038Y-86873793D01*
X151322840Y-86868880D01*
X151234620Y-86848953D01*
X151161358Y-86808678D01*
X151155896Y-86804741D01*
X151081558Y-86738243D01*
X151029823Y-86657908D01*
X150997196Y-86552758D01*
X150980182Y-86411815D01*
X150976030Y-86252588D01*
X151267241Y-86252588D01*
X151267291Y-86279276D01*
X151270064Y-86399738D01*
X151278967Y-86478484D01*
X151296617Y-86529618D01*
X151325632Y-86567241D01*
X151327440Y-86569038D01*
X151398753Y-86617720D01*
X151467865Y-86612921D01*
X151545925Y-86553971D01*
X151565019Y-86533823D01*
X151593142Y-86492515D01*
X151609000Y-86438787D01*
X151616009Y-86357326D01*
X151617586Y-86232821D01*
X151616220Y-86157445D01*
X151601402Y-86020362D01*
X151567579Y-85930548D01*
X151511389Y-85881460D01*
X151429472Y-85866552D01*
X151394956Y-85869729D01*
X151335235Y-85901254D01*
X151295752Y-85971505D01*
X151273942Y-86086583D01*
X151267241Y-86252588D01*
X150976030Y-86252588D01*
X150975287Y-86224101D01*
X150976371Y-86087122D01*
X150981307Y-85983364D01*
X150992272Y-85911412D01*
X151011438Y-85857500D01*
X151040977Y-85807864D01*
X151068092Y-85769931D01*
X151166550Y-85667522D01*
X151278100Y-85611903D01*
X151418246Y-85594297D01*
X151578635Y-85611847D01*
X151717288Y-85674797D01*
X151826951Y-85785824D01*
X151835218Y-85797578D01*
X151854499Y-85828813D01*
X151869269Y-85864507D01*
X151880254Y-85912364D01*
X151888174Y-85980087D01*
X151893753Y-86075382D01*
X151897713Y-86205952D01*
X151898188Y-86232821D01*
X151900778Y-86379502D01*
X151903668Y-86603736D01*
G37*
X151903668Y-86603736D02*
X151904471Y-86668785D01*
X151907040Y-86886260D01*
X151907556Y-87052672D01*
X151904437Y-87173846D01*
X151896100Y-87255607D01*
X151880962Y-87303781D01*
X151857441Y-87324194D01*
X151823956Y-87322672D01*
X151778923Y-87305039D01*
X151720761Y-87277121D01*
X151708332Y-87271164D01*
X151656578Y-87242006D01*
X151629550Y-87207314D01*
X151619207Y-87149470D01*
X151617509Y-87050857D01*
X151617433Y-86873793D01*
X151435038Y-86873793D01*
X151322840Y-86868880D01*
X151234620Y-86848953D01*
X151161358Y-86808678D01*
X151155896Y-86804741D01*
X151081558Y-86738243D01*
X151029823Y-86657908D01*
X150997196Y-86552758D01*
X150980182Y-86411815D01*
X150976030Y-86252588D01*
X151267241Y-86252588D01*
X151267291Y-86279276D01*
X151270064Y-86399738D01*
X151278967Y-86478484D01*
X151296617Y-86529618D01*
X151325632Y-86567241D01*
X151327440Y-86569038D01*
X151398753Y-86617720D01*
X151467865Y-86612921D01*
X151545925Y-86553971D01*
X151565019Y-86533823D01*
X151593142Y-86492515D01*
X151609000Y-86438787D01*
X151616009Y-86357326D01*
X151617586Y-86232821D01*
X151616220Y-86157445D01*
X151601402Y-86020362D01*
X151567579Y-85930548D01*
X151511389Y-85881460D01*
X151429472Y-85866552D01*
X151394956Y-85869729D01*
X151335235Y-85901254D01*
X151295752Y-85971505D01*
X151273942Y-86086583D01*
X151267241Y-86252588D01*
X150976030Y-86252588D01*
X150975287Y-86224101D01*
X150976371Y-86087122D01*
X150981307Y-85983364D01*
X150992272Y-85911412D01*
X151011438Y-85857500D01*
X151040977Y-85807864D01*
X151068092Y-85769931D01*
X151166550Y-85667522D01*
X151278100Y-85611903D01*
X151418246Y-85594297D01*
X151578635Y-85611847D01*
X151717288Y-85674797D01*
X151826951Y-85785824D01*
X151835218Y-85797578D01*
X151854499Y-85828813D01*
X151869269Y-85864507D01*
X151880254Y-85912364D01*
X151888174Y-85980087D01*
X151893753Y-86075382D01*
X151897713Y-86205952D01*
X151898188Y-86232821D01*
X151900778Y-86379502D01*
X151903668Y-86603736D01*
X150134448Y-85634676D02*
X150019342Y-85712111D01*
X150019342Y-85712111D02*
X149930389Y-85823949D01*
X149930389Y-85823949D02*
X149877251Y-85966265D01*
X149877251Y-85966265D02*
X149866503Y-86071015D01*
X149866503Y-86071015D02*
X149867724Y-86114726D01*
X149867724Y-86114726D02*
X149877944Y-86148194D01*
X149877944Y-86148194D02*
X149906039Y-86178179D01*
X149906039Y-86178179D02*
X149960884Y-86211440D01*
X149960884Y-86211440D02*
X150051355Y-86254738D01*
X150051355Y-86254738D02*
X150186328Y-86314833D01*
X150186328Y-86314833D02*
X150187011Y-86315134D01*
X150187011Y-86315134D02*
X150311249Y-86372037D01*
X150311249Y-86372037D02*
X150413127Y-86422565D01*
X150413127Y-86422565D02*
X150482233Y-86461280D01*
X150482233Y-86461280D02*
X150508154Y-86482740D01*
X150508154Y-86482740D02*
X150508161Y-86482913D01*
X150508161Y-86482913D02*
X150485315Y-86529644D01*
X150485315Y-86529644D02*
X150431891Y-86581154D01*
X150431891Y-86581154D02*
X150370558Y-86618261D01*
X150370558Y-86618261D02*
X150339485Y-86625632D01*
X150339485Y-86625632D02*
X150254711Y-86600138D01*
X150254711Y-86600138D02*
X150181707Y-86536291D01*
X150181707Y-86536291D02*
X150146087Y-86466094D01*
X150146087Y-86466094D02*
X150111820Y-86414343D01*
X150111820Y-86414343D02*
X150044697Y-86355409D01*
X150044697Y-86355409D02*
X149965792Y-86304496D01*
X149965792Y-86304496D02*
X149896179Y-86276809D01*
X149896179Y-86276809D02*
X149881623Y-86275287D01*
X149881623Y-86275287D02*
X149865237Y-86300321D01*
X149865237Y-86300321D02*
X149864250Y-86364311D01*
X149864250Y-86364311D02*
X149876292Y-86450593D01*
X149876292Y-86450593D02*
X149898993Y-86542501D01*
X149898993Y-86542501D02*
X149929986Y-86623369D01*
X149929986Y-86623369D02*
X149931552Y-86626509D01*
X149931552Y-86626509D02*
X150024819Y-86756734D01*
X150024819Y-86756734D02*
X150145696Y-86845311D01*
X150145696Y-86845311D02*
X150282973Y-86888786D01*
X150282973Y-86888786D02*
X150425440Y-86883706D01*
X150425440Y-86883706D02*
X150561888Y-86826616D01*
X150561888Y-86826616D02*
X150567955Y-86822602D01*
X150567955Y-86822602D02*
X150675290Y-86725326D01*
X150675290Y-86725326D02*
X150745868Y-86598409D01*
X150745868Y-86598409D02*
X150784926Y-86431526D01*
X150784926Y-86431526D02*
X150790168Y-86384639D01*
X150790168Y-86384639D02*
X150799452Y-86163329D01*
X150799452Y-86163329D02*
X150788322Y-86060124D01*
X150788322Y-86060124D02*
X150508161Y-86060124D01*
X150508161Y-86060124D02*
X150504521Y-86124503D01*
X150504521Y-86124503D02*
X150484611Y-86143291D01*
X150484611Y-86143291D02*
X150434974Y-86129235D01*
X150434974Y-86129235D02*
X150356733Y-86096009D01*
X150356733Y-86096009D02*
X150269274Y-86054359D01*
X150269274Y-86054359D02*
X150267101Y-86053256D01*
X150267101Y-86053256D02*
X150192970Y-86014265D01*
X150192970Y-86014265D02*
X150163219Y-85988244D01*
X150163219Y-85988244D02*
X150170555Y-85960965D01*
X150170555Y-85960965D02*
X150201447Y-85925121D01*
X150201447Y-85925121D02*
X150280040Y-85873251D01*
X150280040Y-85873251D02*
X150364677Y-85869439D01*
X150364677Y-85869439D02*
X150440597Y-85907189D01*
X150440597Y-85907189D02*
X150493035Y-85980001D01*
X150493035Y-85980001D02*
X150508161Y-86060124D01*
X150508161Y-86060124D02*
X150788322Y-86060124D01*
X150788322Y-86060124D02*
X150780356Y-85986261D01*
X150780356Y-85986261D02*
X150731366Y-85845829D01*
X150731366Y-85845829D02*
X150663164Y-85747447D01*
X150663164Y-85747447D02*
X150540065Y-85648030D01*
X150540065Y-85648030D02*
X150404472Y-85598711D01*
X150404472Y-85598711D02*
X150266045Y-85595568D01*
X150266045Y-85595568D02*
X150134448Y-85634676D01*
X150134448Y-85634676D02*
X150134448Y-85634676D01*
G36*
X150790168Y-86384639D02*
G01*
X150784926Y-86431526D01*
X150745868Y-86598409D01*
X150675290Y-86725326D01*
X150567955Y-86822602D01*
X150561888Y-86826616D01*
X150425440Y-86883706D01*
X150282973Y-86888786D01*
X150145696Y-86845311D01*
X150024819Y-86756734D01*
X149931552Y-86626509D01*
X149929986Y-86623369D01*
X149898993Y-86542501D01*
X149876292Y-86450593D01*
X149864250Y-86364311D01*
X149865237Y-86300321D01*
X149881623Y-86275287D01*
X149896179Y-86276809D01*
X149965792Y-86304496D01*
X150044697Y-86355409D01*
X150111820Y-86414343D01*
X150146087Y-86466094D01*
X150181707Y-86536291D01*
X150254711Y-86600138D01*
X150339485Y-86625632D01*
X150370558Y-86618261D01*
X150431891Y-86581154D01*
X150485315Y-86529644D01*
X150508161Y-86482913D01*
X150508154Y-86482740D01*
X150482233Y-86461280D01*
X150413127Y-86422565D01*
X150311249Y-86372037D01*
X150187011Y-86315134D01*
X150186328Y-86314833D01*
X150051355Y-86254738D01*
X149960884Y-86211440D01*
X149906039Y-86178179D01*
X149877944Y-86148194D01*
X149867724Y-86114726D01*
X149866503Y-86071015D01*
X149874996Y-85988244D01*
X150163219Y-85988244D01*
X150192970Y-86014265D01*
X150267101Y-86053256D01*
X150269274Y-86054359D01*
X150356733Y-86096009D01*
X150434974Y-86129235D01*
X150484611Y-86143291D01*
X150504521Y-86124503D01*
X150508161Y-86060124D01*
X150493035Y-85980001D01*
X150440597Y-85907189D01*
X150364677Y-85869439D01*
X150280040Y-85873251D01*
X150201447Y-85925121D01*
X150170555Y-85960965D01*
X150163219Y-85988244D01*
X149874996Y-85988244D01*
X149877251Y-85966265D01*
X149930389Y-85823949D01*
X150019342Y-85712111D01*
X150134448Y-85634676D01*
X150266045Y-85595568D01*
X150404472Y-85598711D01*
X150540065Y-85648030D01*
X150663164Y-85747447D01*
X150731366Y-85845829D01*
X150780356Y-85986261D01*
X150788322Y-86060124D01*
X150799452Y-86163329D01*
X150790168Y-86384639D01*
G37*
X150790168Y-86384639D02*
X150784926Y-86431526D01*
X150745868Y-86598409D01*
X150675290Y-86725326D01*
X150567955Y-86822602D01*
X150561888Y-86826616D01*
X150425440Y-86883706D01*
X150282973Y-86888786D01*
X150145696Y-86845311D01*
X150024819Y-86756734D01*
X149931552Y-86626509D01*
X149929986Y-86623369D01*
X149898993Y-86542501D01*
X149876292Y-86450593D01*
X149864250Y-86364311D01*
X149865237Y-86300321D01*
X149881623Y-86275287D01*
X149896179Y-86276809D01*
X149965792Y-86304496D01*
X150044697Y-86355409D01*
X150111820Y-86414343D01*
X150146087Y-86466094D01*
X150181707Y-86536291D01*
X150254711Y-86600138D01*
X150339485Y-86625632D01*
X150370558Y-86618261D01*
X150431891Y-86581154D01*
X150485315Y-86529644D01*
X150508161Y-86482913D01*
X150508154Y-86482740D01*
X150482233Y-86461280D01*
X150413127Y-86422565D01*
X150311249Y-86372037D01*
X150187011Y-86315134D01*
X150186328Y-86314833D01*
X150051355Y-86254738D01*
X149960884Y-86211440D01*
X149906039Y-86178179D01*
X149877944Y-86148194D01*
X149867724Y-86114726D01*
X149866503Y-86071015D01*
X149874996Y-85988244D01*
X150163219Y-85988244D01*
X150192970Y-86014265D01*
X150267101Y-86053256D01*
X150269274Y-86054359D01*
X150356733Y-86096009D01*
X150434974Y-86129235D01*
X150484611Y-86143291D01*
X150504521Y-86124503D01*
X150508161Y-86060124D01*
X150493035Y-85980001D01*
X150440597Y-85907189D01*
X150364677Y-85869439D01*
X150280040Y-85873251D01*
X150201447Y-85925121D01*
X150170555Y-85960965D01*
X150163219Y-85988244D01*
X149874996Y-85988244D01*
X149877251Y-85966265D01*
X149930389Y-85823949D01*
X150019342Y-85712111D01*
X150134448Y-85634676D01*
X150266045Y-85595568D01*
X150404472Y-85598711D01*
X150540065Y-85648030D01*
X150663164Y-85747447D01*
X150731366Y-85845829D01*
X150780356Y-85986261D01*
X150788322Y-86060124D01*
X150799452Y-86163329D01*
X150790168Y-86384639D01*
X149032571Y-85627719D02*
X148938877Y-85681914D01*
X148938877Y-85681914D02*
X148873736Y-85735707D01*
X148873736Y-85735707D02*
X148826093Y-85792066D01*
X148826093Y-85792066D02*
X148793272Y-85860987D01*
X148793272Y-85860987D02*
X148772594Y-85952468D01*
X148772594Y-85952468D02*
X148761380Y-86076506D01*
X148761380Y-86076506D02*
X148756951Y-86243098D01*
X148756951Y-86243098D02*
X148756437Y-86362851D01*
X148756437Y-86362851D02*
X148756437Y-86803659D01*
X148756437Y-86803659D02*
X148880517Y-86859283D01*
X148880517Y-86859283D02*
X149004598Y-86914907D01*
X149004598Y-86914907D02*
X149019195Y-86432095D01*
X149019195Y-86432095D02*
X149025227Y-86251779D01*
X149025227Y-86251779D02*
X149031555Y-86120901D01*
X149031555Y-86120901D02*
X149039394Y-86030511D01*
X149039394Y-86030511D02*
X149049963Y-85971664D01*
X149049963Y-85971664D02*
X149064477Y-85935413D01*
X149064477Y-85935413D02*
X149084152Y-85912810D01*
X149084152Y-85912810D02*
X149090465Y-85907917D01*
X149090465Y-85907917D02*
X149186112Y-85869706D01*
X149186112Y-85869706D02*
X149282793Y-85884827D01*
X149282793Y-85884827D02*
X149340345Y-85924943D01*
X149340345Y-85924943D02*
X149363755Y-85953370D01*
X149363755Y-85953370D02*
X149379961Y-85990672D01*
X149379961Y-85990672D02*
X149390259Y-86047223D01*
X149390259Y-86047223D02*
X149395951Y-86133394D01*
X149395951Y-86133394D02*
X149398336Y-86259558D01*
X149398336Y-86259558D02*
X149398736Y-86391042D01*
X149398736Y-86391042D02*
X149398814Y-86555999D01*
X149398814Y-86555999D02*
X149401639Y-86672761D01*
X149401639Y-86672761D02*
X149411093Y-86751510D01*
X149411093Y-86751510D02*
X149431060Y-86802431D01*
X149431060Y-86802431D02*
X149465424Y-86835706D01*
X149465424Y-86835706D02*
X149518068Y-86861520D01*
X149518068Y-86861520D02*
X149588383Y-86888344D01*
X149588383Y-86888344D02*
X149665180Y-86917542D01*
X149665180Y-86917542D02*
X149656038Y-86399346D01*
X149656038Y-86399346D02*
X149652357Y-86212539D01*
X149652357Y-86212539D02*
X149648050Y-86074490D01*
X149648050Y-86074490D02*
X149641877Y-85975568D01*
X149641877Y-85975568D02*
X149632598Y-85906145D01*
X149632598Y-85906145D02*
X149618973Y-85856590D01*
X149618973Y-85856590D02*
X149599761Y-85817273D01*
X149599761Y-85817273D02*
X149576598Y-85782584D01*
X149576598Y-85782584D02*
X149464848Y-85671770D01*
X149464848Y-85671770D02*
X149328487Y-85607689D01*
X149328487Y-85607689D02*
X149180175Y-85592339D01*
X149180175Y-85592339D02*
X149032571Y-85627719D01*
X149032571Y-85627719D02*
X149032571Y-85627719D01*
G36*
X149328487Y-85607689D02*
G01*
X149464848Y-85671770D01*
X149576598Y-85782584D01*
X149599761Y-85817273D01*
X149618973Y-85856590D01*
X149632598Y-85906145D01*
X149641877Y-85975568D01*
X149648050Y-86074490D01*
X149652357Y-86212539D01*
X149656038Y-86399346D01*
X149665180Y-86917542D01*
X149588383Y-86888344D01*
X149518068Y-86861520D01*
X149465424Y-86835706D01*
X149431060Y-86802431D01*
X149411093Y-86751510D01*
X149401639Y-86672761D01*
X149398814Y-86555999D01*
X149398736Y-86391042D01*
X149398336Y-86259558D01*
X149395951Y-86133394D01*
X149390259Y-86047223D01*
X149379961Y-85990672D01*
X149363755Y-85953370D01*
X149340345Y-85924943D01*
X149282793Y-85884827D01*
X149186112Y-85869706D01*
X149090465Y-85907917D01*
X149084152Y-85912810D01*
X149064477Y-85935413D01*
X149049963Y-85971664D01*
X149039394Y-86030511D01*
X149031555Y-86120901D01*
X149025227Y-86251779D01*
X149019195Y-86432095D01*
X149004598Y-86914907D01*
X148880517Y-86859283D01*
X148756437Y-86803659D01*
X148756437Y-86362851D01*
X148756951Y-86243098D01*
X148761380Y-86076506D01*
X148772594Y-85952468D01*
X148793272Y-85860987D01*
X148826093Y-85792066D01*
X148873736Y-85735707D01*
X148938877Y-85681914D01*
X149032571Y-85627719D01*
X149180175Y-85592339D01*
X149328487Y-85607689D01*
G37*
X149328487Y-85607689D02*
X149464848Y-85671770D01*
X149576598Y-85782584D01*
X149599761Y-85817273D01*
X149618973Y-85856590D01*
X149632598Y-85906145D01*
X149641877Y-85975568D01*
X149648050Y-86074490D01*
X149652357Y-86212539D01*
X149656038Y-86399346D01*
X149665180Y-86917542D01*
X149588383Y-86888344D01*
X149518068Y-86861520D01*
X149465424Y-86835706D01*
X149431060Y-86802431D01*
X149411093Y-86751510D01*
X149401639Y-86672761D01*
X149398814Y-86555999D01*
X149398736Y-86391042D01*
X149398336Y-86259558D01*
X149395951Y-86133394D01*
X149390259Y-86047223D01*
X149379961Y-85990672D01*
X149363755Y-85953370D01*
X149340345Y-85924943D01*
X149282793Y-85884827D01*
X149186112Y-85869706D01*
X149090465Y-85907917D01*
X149084152Y-85912810D01*
X149064477Y-85935413D01*
X149049963Y-85971664D01*
X149039394Y-86030511D01*
X149031555Y-86120901D01*
X149025227Y-86251779D01*
X149019195Y-86432095D01*
X149004598Y-86914907D01*
X148880517Y-86859283D01*
X148756437Y-86803659D01*
X148756437Y-86362851D01*
X148756951Y-86243098D01*
X148761380Y-86076506D01*
X148772594Y-85952468D01*
X148793272Y-85860987D01*
X148826093Y-85792066D01*
X148873736Y-85735707D01*
X148938877Y-85681914D01*
X149032571Y-85627719D01*
X149180175Y-85592339D01*
X149328487Y-85607689D01*
X141114310Y-85690018D02*
X141079415Y-85705269D01*
X141079415Y-85705269D02*
X140996123Y-85771235D01*
X140996123Y-85771235D02*
X140924897Y-85866618D01*
X140924897Y-85866618D02*
X140880847Y-85968406D01*
X140880847Y-85968406D02*
X140873678Y-86018587D01*
X140873678Y-86018587D02*
X140897715Y-86088647D01*
X140897715Y-86088647D02*
X140950439Y-86125717D01*
X140950439Y-86125717D02*
X141006969Y-86148164D01*
X141006969Y-86148164D02*
X141032854Y-86152300D01*
X141032854Y-86152300D02*
X141045458Y-86122283D01*
X141045458Y-86122283D02*
X141070346Y-86056961D01*
X141070346Y-86056961D02*
X141081265Y-86027445D01*
X141081265Y-86027445D02*
X141142492Y-85925348D01*
X141142492Y-85925348D02*
X141231139Y-85874423D01*
X141231139Y-85874423D02*
X141344807Y-85875989D01*
X141344807Y-85875989D02*
X141353226Y-85877994D01*
X141353226Y-85877994D02*
X141413912Y-85906767D01*
X141413912Y-85906767D02*
X141458526Y-85962859D01*
X141458526Y-85962859D02*
X141488998Y-86053163D01*
X141488998Y-86053163D02*
X141507256Y-86184571D01*
X141507256Y-86184571D02*
X141515229Y-86363974D01*
X141515229Y-86363974D02*
X141515977Y-86459433D01*
X141515977Y-86459433D02*
X141516348Y-86609913D01*
X141516348Y-86609913D02*
X141518777Y-86712495D01*
X141518777Y-86712495D02*
X141525240Y-86777672D01*
X141525240Y-86777672D02*
X141537712Y-86815938D01*
X141537712Y-86815938D02*
X141558167Y-86837785D01*
X141558167Y-86837785D02*
X141588581Y-86853707D01*
X141588581Y-86853707D02*
X141590339Y-86854509D01*
X141590339Y-86854509D02*
X141648909Y-86879272D01*
X141648909Y-86879272D02*
X141677925Y-86888391D01*
X141677925Y-86888391D02*
X141682384Y-86860822D01*
X141682384Y-86860822D02*
X141686201Y-86784620D01*
X141686201Y-86784620D02*
X141689101Y-86669541D01*
X141689101Y-86669541D02*
X141690809Y-86525341D01*
X141690809Y-86525341D02*
X141691149Y-86419814D01*
X141691149Y-86419814D02*
X141689412Y-86215613D01*
X141689412Y-86215613D02*
X141682618Y-86060697D01*
X141682618Y-86060697D02*
X141668393Y-85946024D01*
X141668393Y-85946024D02*
X141644362Y-85862551D01*
X141644362Y-85862551D02*
X141608152Y-85801236D01*
X141608152Y-85801236D02*
X141557388Y-85753034D01*
X141557388Y-85753034D02*
X141507261Y-85719393D01*
X141507261Y-85719393D02*
X141386725Y-85674619D01*
X141386725Y-85674619D02*
X141246443Y-85664521D01*
X141246443Y-85664521D02*
X141114310Y-85690018D01*
X141114310Y-85690018D02*
X141114310Y-85690018D01*
G36*
X141386725Y-85674619D02*
G01*
X141507261Y-85719393D01*
X141557388Y-85753034D01*
X141608152Y-85801236D01*
X141644362Y-85862551D01*
X141668393Y-85946024D01*
X141682618Y-86060697D01*
X141689412Y-86215613D01*
X141691149Y-86419814D01*
X141690809Y-86525341D01*
X141689101Y-86669541D01*
X141686201Y-86784620D01*
X141682384Y-86860822D01*
X141677925Y-86888391D01*
X141648909Y-86879272D01*
X141590339Y-86854509D01*
X141588581Y-86853707D01*
X141558167Y-86837785D01*
X141537712Y-86815938D01*
X141525240Y-86777672D01*
X141518777Y-86712495D01*
X141516348Y-86609913D01*
X141515977Y-86459433D01*
X141515229Y-86363974D01*
X141507256Y-86184571D01*
X141488998Y-86053163D01*
X141458526Y-85962859D01*
X141413912Y-85906767D01*
X141353226Y-85877994D01*
X141344807Y-85875989D01*
X141231139Y-85874423D01*
X141142492Y-85925348D01*
X141081265Y-86027445D01*
X141070346Y-86056961D01*
X141045458Y-86122283D01*
X141032854Y-86152300D01*
X141006969Y-86148164D01*
X140950439Y-86125717D01*
X140897715Y-86088647D01*
X140873678Y-86018587D01*
X140880847Y-85968406D01*
X140924897Y-85866618D01*
X140996123Y-85771235D01*
X141079415Y-85705269D01*
X141114310Y-85690018D01*
X141246443Y-85664521D01*
X141386725Y-85674619D01*
G37*
X141386725Y-85674619D02*
X141507261Y-85719393D01*
X141557388Y-85753034D01*
X141608152Y-85801236D01*
X141644362Y-85862551D01*
X141668393Y-85946024D01*
X141682618Y-86060697D01*
X141689412Y-86215613D01*
X141691149Y-86419814D01*
X141690809Y-86525341D01*
X141689101Y-86669541D01*
X141686201Y-86784620D01*
X141682384Y-86860822D01*
X141677925Y-86888391D01*
X141648909Y-86879272D01*
X141590339Y-86854509D01*
X141588581Y-86853707D01*
X141558167Y-86837785D01*
X141537712Y-86815938D01*
X141525240Y-86777672D01*
X141518777Y-86712495D01*
X141516348Y-86609913D01*
X141515977Y-86459433D01*
X141515229Y-86363974D01*
X141507256Y-86184571D01*
X141488998Y-86053163D01*
X141458526Y-85962859D01*
X141413912Y-85906767D01*
X141353226Y-85877994D01*
X141344807Y-85875989D01*
X141231139Y-85874423D01*
X141142492Y-85925348D01*
X141081265Y-86027445D01*
X141070346Y-86056961D01*
X141045458Y-86122283D01*
X141032854Y-86152300D01*
X141006969Y-86148164D01*
X140950439Y-86125717D01*
X140897715Y-86088647D01*
X140873678Y-86018587D01*
X140880847Y-85968406D01*
X140924897Y-85866618D01*
X140996123Y-85771235D01*
X141079415Y-85705269D01*
X141114310Y-85690018D01*
X141246443Y-85664521D01*
X141386725Y-85674619D01*
X146370056Y-85674360D02*
X146255657Y-85716842D01*
X146255657Y-85716842D02*
X146254348Y-85717658D01*
X146254348Y-85717658D02*
X146183597Y-85769730D01*
X146183597Y-85769730D02*
X146131364Y-85830584D01*
X146131364Y-85830584D02*
X146094629Y-85909887D01*
X146094629Y-85909887D02*
X146070366Y-86017309D01*
X146070366Y-86017309D02*
X146055555Y-86162517D01*
X146055555Y-86162517D02*
X146047171Y-86355179D01*
X146047171Y-86355179D02*
X146046436Y-86382628D01*
X146046436Y-86382628D02*
X146035880Y-86796521D01*
X146035880Y-86796521D02*
X146124709Y-86842456D01*
X146124709Y-86842456D02*
X146188982Y-86873498D01*
X146188982Y-86873498D02*
X146227790Y-86888206D01*
X146227790Y-86888206D02*
X146229585Y-86888391D01*
X146229585Y-86888391D02*
X146236300Y-86861250D01*
X146236300Y-86861250D02*
X146241635Y-86788041D01*
X146241635Y-86788041D02*
X146244917Y-86681081D01*
X146244917Y-86681081D02*
X146245632Y-86594469D01*
X146245632Y-86594469D02*
X146245649Y-86454162D01*
X146245649Y-86454162D02*
X146252063Y-86366051D01*
X146252063Y-86366051D02*
X146274420Y-86324025D01*
X146274420Y-86324025D02*
X146322268Y-86321975D01*
X146322268Y-86321975D02*
X146405151Y-86353790D01*
X146405151Y-86353790D02*
X146530287Y-86412272D01*
X146530287Y-86412272D02*
X146622303Y-86460845D01*
X146622303Y-86460845D02*
X146669629Y-86502986D01*
X146669629Y-86502986D02*
X146683542Y-86548916D01*
X146683542Y-86548916D02*
X146683563Y-86551189D01*
X146683563Y-86551189D02*
X146660605Y-86630311D01*
X146660605Y-86630311D02*
X146592630Y-86673055D01*
X146592630Y-86673055D02*
X146488602Y-86679246D01*
X146488602Y-86679246D02*
X146413670Y-86678172D01*
X146413670Y-86678172D02*
X146374161Y-86699753D01*
X146374161Y-86699753D02*
X146349522Y-86751591D01*
X146349522Y-86751591D02*
X146335341Y-86817632D01*
X146335341Y-86817632D02*
X146355777Y-86855104D01*
X146355777Y-86855104D02*
X146363472Y-86860467D01*
X146363472Y-86860467D02*
X146435917Y-86882006D01*
X146435917Y-86882006D02*
X146537367Y-86885055D01*
X146537367Y-86885055D02*
X146641843Y-86870778D01*
X146641843Y-86870778D02*
X146715875Y-86844688D01*
X146715875Y-86844688D02*
X146818228Y-86757785D01*
X146818228Y-86757785D02*
X146876409Y-86636816D01*
X146876409Y-86636816D02*
X146887931Y-86542308D01*
X146887931Y-86542308D02*
X146879138Y-86457062D01*
X146879138Y-86457062D02*
X146847320Y-86387476D01*
X146847320Y-86387476D02*
X146784316Y-86325672D01*
X146784316Y-86325672D02*
X146681969Y-86263772D01*
X146681969Y-86263772D02*
X146532118Y-86193897D01*
X146532118Y-86193897D02*
X146522988Y-86189948D01*
X146522988Y-86189948D02*
X146388003Y-86127588D01*
X146388003Y-86127588D02*
X146304706Y-86076446D01*
X146304706Y-86076446D02*
X146269003Y-86030488D01*
X146269003Y-86030488D02*
X146276797Y-85983683D01*
X146276797Y-85983683D02*
X146323993Y-85929998D01*
X146323993Y-85929998D02*
X146338106Y-85917644D01*
X146338106Y-85917644D02*
X146432641Y-85869741D01*
X146432641Y-85869741D02*
X146530594Y-85871758D01*
X146530594Y-85871758D02*
X146615903Y-85918724D01*
X146615903Y-85918724D02*
X146672504Y-86005669D01*
X146672504Y-86005669D02*
X146677763Y-86022734D01*
X146677763Y-86022734D02*
X146728977Y-86105504D01*
X146728977Y-86105504D02*
X146793963Y-86145372D01*
X146793963Y-86145372D02*
X146887931Y-86184882D01*
X146887931Y-86184882D02*
X146887931Y-86082658D01*
X146887931Y-86082658D02*
X146859347Y-85934072D01*
X146859347Y-85934072D02*
X146774505Y-85797784D01*
X146774505Y-85797784D02*
X146730355Y-85752191D01*
X146730355Y-85752191D02*
X146629995Y-85693674D01*
X146629995Y-85693674D02*
X146502365Y-85667184D01*
X146502365Y-85667184D02*
X146370056Y-85674360D01*
X146370056Y-85674360D02*
X146370056Y-85674360D01*
G36*
X146629995Y-85693674D02*
G01*
X146730355Y-85752191D01*
X146774505Y-85797784D01*
X146859347Y-85934072D01*
X146887931Y-86082658D01*
X146887931Y-86184882D01*
X146793963Y-86145372D01*
X146728977Y-86105504D01*
X146677763Y-86022734D01*
X146672504Y-86005669D01*
X146615903Y-85918724D01*
X146530594Y-85871758D01*
X146432641Y-85869741D01*
X146338106Y-85917644D01*
X146323993Y-85929998D01*
X146276797Y-85983683D01*
X146269003Y-86030488D01*
X146304706Y-86076446D01*
X146388003Y-86127588D01*
X146522988Y-86189948D01*
X146532118Y-86193897D01*
X146681969Y-86263772D01*
X146784316Y-86325672D01*
X146847320Y-86387476D01*
X146879138Y-86457062D01*
X146887931Y-86542308D01*
X146876409Y-86636816D01*
X146818228Y-86757785D01*
X146715875Y-86844688D01*
X146641843Y-86870778D01*
X146537367Y-86885055D01*
X146435917Y-86882006D01*
X146363472Y-86860467D01*
X146355777Y-86855104D01*
X146335341Y-86817632D01*
X146349522Y-86751591D01*
X146374161Y-86699753D01*
X146413670Y-86678172D01*
X146488602Y-86679246D01*
X146592630Y-86673055D01*
X146660605Y-86630311D01*
X146683563Y-86551189D01*
X146683542Y-86548916D01*
X146669629Y-86502986D01*
X146622303Y-86460845D01*
X146530287Y-86412272D01*
X146405151Y-86353790D01*
X146322268Y-86321975D01*
X146274420Y-86324025D01*
X146252063Y-86366051D01*
X146245649Y-86454162D01*
X146245632Y-86594469D01*
X146244917Y-86681081D01*
X146241635Y-86788041D01*
X146236300Y-86861250D01*
X146229585Y-86888391D01*
X146227790Y-86888206D01*
X146188982Y-86873498D01*
X146124709Y-86842456D01*
X146035880Y-86796521D01*
X146046436Y-86382628D01*
X146047171Y-86355179D01*
X146055555Y-86162517D01*
X146070366Y-86017309D01*
X146094629Y-85909887D01*
X146131364Y-85830584D01*
X146183597Y-85769730D01*
X146254348Y-85717658D01*
X146255657Y-85716842D01*
X146370056Y-85674360D01*
X146502365Y-85667184D01*
X146629995Y-85693674D01*
G37*
X146629995Y-85693674D02*
X146730355Y-85752191D01*
X146774505Y-85797784D01*
X146859347Y-85934072D01*
X146887931Y-86082658D01*
X146887931Y-86184882D01*
X146793963Y-86145372D01*
X146728977Y-86105504D01*
X146677763Y-86022734D01*
X146672504Y-86005669D01*
X146615903Y-85918724D01*
X146530594Y-85871758D01*
X146432641Y-85869741D01*
X146338106Y-85917644D01*
X146323993Y-85929998D01*
X146276797Y-85983683D01*
X146269003Y-86030488D01*
X146304706Y-86076446D01*
X146388003Y-86127588D01*
X146522988Y-86189948D01*
X146532118Y-86193897D01*
X146681969Y-86263772D01*
X146784316Y-86325672D01*
X146847320Y-86387476D01*
X146879138Y-86457062D01*
X146887931Y-86542308D01*
X146876409Y-86636816D01*
X146818228Y-86757785D01*
X146715875Y-86844688D01*
X146641843Y-86870778D01*
X146537367Y-86885055D01*
X146435917Y-86882006D01*
X146363472Y-86860467D01*
X146355777Y-86855104D01*
X146335341Y-86817632D01*
X146349522Y-86751591D01*
X146374161Y-86699753D01*
X146413670Y-86678172D01*
X146488602Y-86679246D01*
X146592630Y-86673055D01*
X146660605Y-86630311D01*
X146683563Y-86551189D01*
X146683542Y-86548916D01*
X146669629Y-86502986D01*
X146622303Y-86460845D01*
X146530287Y-86412272D01*
X146405151Y-86353790D01*
X146322268Y-86321975D01*
X146274420Y-86324025D01*
X146252063Y-86366051D01*
X146245649Y-86454162D01*
X146245632Y-86594469D01*
X146244917Y-86681081D01*
X146241635Y-86788041D01*
X146236300Y-86861250D01*
X146229585Y-86888391D01*
X146227790Y-86888206D01*
X146188982Y-86873498D01*
X146124709Y-86842456D01*
X146035880Y-86796521D01*
X146046436Y-86382628D01*
X146047171Y-86355179D01*
X146055555Y-86162517D01*
X146070366Y-86017309D01*
X146094629Y-85909887D01*
X146131364Y-85830584D01*
X146183597Y-85769730D01*
X146254348Y-85717658D01*
X146255657Y-85716842D01*
X146370056Y-85674360D01*
X146502365Y-85667184D01*
X146629995Y-85693674D01*
X152401779Y-85616015D02*
X152264939Y-85687968D01*
X152264939Y-85687968D02*
X152163949Y-85803766D01*
X152163949Y-85803766D02*
X152128075Y-85878213D01*
X152128075Y-85878213D02*
X152100161Y-85989992D01*
X152100161Y-85989992D02*
X152085871Y-86131227D01*
X152085871Y-86131227D02*
X152084516Y-86285371D01*
X152084516Y-86285371D02*
X152095405Y-86435879D01*
X152095405Y-86435879D02*
X152117847Y-86566205D01*
X152117847Y-86566205D02*
X152151150Y-86659803D01*
X152151150Y-86659803D02*
X152161385Y-86675922D01*
X152161385Y-86675922D02*
X152282618Y-86796249D01*
X152282618Y-86796249D02*
X152426613Y-86868317D01*
X152426613Y-86868317D02*
X152582861Y-86889408D01*
X152582861Y-86889408D02*
X152740852Y-86856802D01*
X152740852Y-86856802D02*
X152784820Y-86837253D01*
X152784820Y-86837253D02*
X152870444Y-86777012D01*
X152870444Y-86777012D02*
X152945592Y-86697135D01*
X152945592Y-86697135D02*
X152952694Y-86687004D01*
X152952694Y-86687004D02*
X152981561Y-86638181D01*
X152981561Y-86638181D02*
X153000643Y-86585990D01*
X153000643Y-86585990D02*
X153011916Y-86517285D01*
X153011916Y-86517285D02*
X153017355Y-86418918D01*
X153017355Y-86418918D02*
X153018938Y-86277744D01*
X153018938Y-86277744D02*
X153018965Y-86246092D01*
X153018965Y-86246092D02*
X153018893Y-86236019D01*
X153018893Y-86236019D02*
X152727011Y-86236019D01*
X152727011Y-86236019D02*
X152725313Y-86369256D01*
X152725313Y-86369256D02*
X152718628Y-86457674D01*
X152718628Y-86457674D02*
X152704575Y-86514785D01*
X152704575Y-86514785D02*
X152680771Y-86554102D01*
X152680771Y-86554102D02*
X152668621Y-86567241D01*
X152668621Y-86567241D02*
X152598764Y-86617172D01*
X152598764Y-86617172D02*
X152530941Y-86614895D01*
X152530941Y-86614895D02*
X152462365Y-86571584D01*
X152462365Y-86571584D02*
X152421465Y-86525346D01*
X152421465Y-86525346D02*
X152397242Y-86457857D01*
X152397242Y-86457857D02*
X152383639Y-86351433D01*
X152383639Y-86351433D02*
X152382706Y-86339020D01*
X152382706Y-86339020D02*
X152380384Y-86146147D01*
X152380384Y-86146147D02*
X152404650Y-86002900D01*
X152404650Y-86002900D02*
X152455176Y-85910160D01*
X152455176Y-85910160D02*
X152531632Y-85868807D01*
X152531632Y-85868807D02*
X152558924Y-85866552D01*
X152558924Y-85866552D02*
X152630589Y-85877893D01*
X152630589Y-85877893D02*
X152679610Y-85917184D01*
X152679610Y-85917184D02*
X152709582Y-85992326D01*
X152709582Y-85992326D02*
X152724101Y-86111222D01*
X152724101Y-86111222D02*
X152727011Y-86236019D01*
X152727011Y-86236019D02*
X153018893Y-86236019D01*
X153018893Y-86236019D02*
X153017878Y-86095659D01*
X153017878Y-86095659D02*
X153013312Y-85990549D01*
X153013312Y-85990549D02*
X153003312Y-85917714D01*
X153003312Y-85917714D02*
X152985921Y-85864108D01*
X152985921Y-85864108D02*
X152959184Y-85816681D01*
X152959184Y-85816681D02*
X152953276Y-85807864D01*
X152953276Y-85807864D02*
X152853968Y-85689007D01*
X152853968Y-85689007D02*
X152745758Y-85620008D01*
X152745758Y-85620008D02*
X152614019Y-85592619D01*
X152614019Y-85592619D02*
X152569283Y-85591281D01*
X152569283Y-85591281D02*
X152401779Y-85616015D01*
X152401779Y-85616015D02*
X152401779Y-85616015D01*
G36*
X153018938Y-86277744D02*
G01*
X153017355Y-86418918D01*
X153011916Y-86517285D01*
X153000643Y-86585990D01*
X152981561Y-86638181D01*
X152952694Y-86687004D01*
X152945592Y-86697135D01*
X152870444Y-86777012D01*
X152784820Y-86837253D01*
X152740852Y-86856802D01*
X152582861Y-86889408D01*
X152426613Y-86868317D01*
X152282618Y-86796249D01*
X152161385Y-86675922D01*
X152151150Y-86659803D01*
X152117847Y-86566205D01*
X152095405Y-86435879D01*
X152084516Y-86285371D01*
X152085740Y-86146147D01*
X152380384Y-86146147D01*
X152382706Y-86339020D01*
X152383639Y-86351433D01*
X152397242Y-86457857D01*
X152421465Y-86525346D01*
X152462365Y-86571584D01*
X152530941Y-86614895D01*
X152598764Y-86617172D01*
X152668621Y-86567241D01*
X152680771Y-86554102D01*
X152704575Y-86514785D01*
X152718628Y-86457674D01*
X152725313Y-86369256D01*
X152727011Y-86236019D01*
X152724101Y-86111222D01*
X152709582Y-85992326D01*
X152679610Y-85917184D01*
X152630589Y-85877893D01*
X152558924Y-85866552D01*
X152531632Y-85868807D01*
X152455176Y-85910160D01*
X152404650Y-86002900D01*
X152380384Y-86146147D01*
X152085740Y-86146147D01*
X152085871Y-86131227D01*
X152100161Y-85989992D01*
X152128075Y-85878213D01*
X152163949Y-85803766D01*
X152264939Y-85687968D01*
X152401779Y-85616015D01*
X152569283Y-85591281D01*
X152614019Y-85592619D01*
X152745758Y-85620008D01*
X152853968Y-85689007D01*
X152953276Y-85807864D01*
X152959184Y-85816681D01*
X152985921Y-85864108D01*
X153003312Y-85917714D01*
X153013312Y-85990549D01*
X153017878Y-86095659D01*
X153018893Y-86236019D01*
X153018965Y-86246092D01*
X153018938Y-86277744D01*
G37*
X153018938Y-86277744D02*
X153017355Y-86418918D01*
X153011916Y-86517285D01*
X153000643Y-86585990D01*
X152981561Y-86638181D01*
X152952694Y-86687004D01*
X152945592Y-86697135D01*
X152870444Y-86777012D01*
X152784820Y-86837253D01*
X152740852Y-86856802D01*
X152582861Y-86889408D01*
X152426613Y-86868317D01*
X152282618Y-86796249D01*
X152161385Y-86675922D01*
X152151150Y-86659803D01*
X152117847Y-86566205D01*
X152095405Y-86435879D01*
X152084516Y-86285371D01*
X152085740Y-86146147D01*
X152380384Y-86146147D01*
X152382706Y-86339020D01*
X152383639Y-86351433D01*
X152397242Y-86457857D01*
X152421465Y-86525346D01*
X152462365Y-86571584D01*
X152530941Y-86614895D01*
X152598764Y-86617172D01*
X152668621Y-86567241D01*
X152680771Y-86554102D01*
X152704575Y-86514785D01*
X152718628Y-86457674D01*
X152725313Y-86369256D01*
X152727011Y-86236019D01*
X152724101Y-86111222D01*
X152709582Y-85992326D01*
X152679610Y-85917184D01*
X152630589Y-85877893D01*
X152558924Y-85866552D01*
X152531632Y-85868807D01*
X152455176Y-85910160D01*
X152404650Y-86002900D01*
X152380384Y-86146147D01*
X152085740Y-86146147D01*
X152085871Y-86131227D01*
X152100161Y-85989992D01*
X152128075Y-85878213D01*
X152163949Y-85803766D01*
X152264939Y-85687968D01*
X152401779Y-85616015D01*
X152569283Y-85591281D01*
X152614019Y-85592619D01*
X152745758Y-85620008D01*
X152853968Y-85689007D01*
X152953276Y-85807864D01*
X152959184Y-85816681D01*
X152985921Y-85864108D01*
X153003312Y-85917714D01*
X153013312Y-85990549D01*
X153017878Y-86095659D01*
X153018893Y-86236019D01*
X153018965Y-86246092D01*
X153018938Y-86277744D01*
X140106561Y-85706540D02*
X139991050Y-85782034D01*
X139991050Y-85782034D02*
X139935336Y-85849617D01*
X139935336Y-85849617D02*
X139891196Y-85972255D01*
X139891196Y-85972255D02*
X139887691Y-86069298D01*
X139887691Y-86069298D02*
X139895632Y-86199056D01*
X139895632Y-86199056D02*
X140194885Y-86330039D01*
X140194885Y-86330039D02*
X140340389Y-86396958D01*
X140340389Y-86396958D02*
X140435463Y-86450790D01*
X140435463Y-86450790D02*
X140484899Y-86497416D01*
X140484899Y-86497416D02*
X140493489Y-86542720D01*
X140493489Y-86542720D02*
X140466028Y-86592582D01*
X140466028Y-86592582D02*
X140435747Y-86625632D01*
X140435747Y-86625632D02*
X140347637Y-86678633D01*
X140347637Y-86678633D02*
X140251804Y-86682347D01*
X140251804Y-86682347D02*
X140163788Y-86641041D01*
X140163788Y-86641041D02*
X140099131Y-86558983D01*
X140099131Y-86558983D02*
X140087567Y-86530008D01*
X140087567Y-86530008D02*
X140032175Y-86439509D01*
X140032175Y-86439509D02*
X139968447Y-86400940D01*
X139968447Y-86400940D02*
X139881034Y-86367946D01*
X139881034Y-86367946D02*
X139881034Y-86493034D01*
X139881034Y-86493034D02*
X139888762Y-86578156D01*
X139888762Y-86578156D02*
X139919034Y-86649938D01*
X139919034Y-86649938D02*
X139982482Y-86732356D01*
X139982482Y-86732356D02*
X139991912Y-86743066D01*
X139991912Y-86743066D02*
X140062487Y-86816391D01*
X140062487Y-86816391D02*
X140123153Y-86855742D01*
X140123153Y-86855742D02*
X140199050Y-86873845D01*
X140199050Y-86873845D02*
X140261970Y-86879774D01*
X140261970Y-86879774D02*
X140374513Y-86881251D01*
X140374513Y-86881251D02*
X140454630Y-86862535D01*
X140454630Y-86862535D02*
X140504610Y-86834747D01*
X140504610Y-86834747D02*
X140583162Y-86773641D01*
X140583162Y-86773641D02*
X140637537Y-86707554D01*
X140637537Y-86707554D02*
X140671948Y-86624441D01*
X140671948Y-86624441D02*
X140690612Y-86512254D01*
X140690612Y-86512254D02*
X140697744Y-86358946D01*
X140697744Y-86358946D02*
X140698313Y-86281136D01*
X140698313Y-86281136D02*
X140696378Y-86187853D01*
X140696378Y-86187853D02*
X140520101Y-86187853D01*
X140520101Y-86187853D02*
X140518056Y-86237896D01*
X140518056Y-86237896D02*
X140512961Y-86246092D01*
X140512961Y-86246092D02*
X140479334Y-86234958D01*
X140479334Y-86234958D02*
X140406970Y-86205493D01*
X140406970Y-86205493D02*
X140310253Y-86163601D01*
X140310253Y-86163601D02*
X140290027Y-86154597D01*
X140290027Y-86154597D02*
X140167797Y-86092442D01*
X140167797Y-86092442D02*
X140100453Y-86037815D01*
X140100453Y-86037815D02*
X140085652Y-85986649D01*
X140085652Y-85986649D02*
X140121053Y-85934876D01*
X140121053Y-85934876D02*
X140150289Y-85912000D01*
X140150289Y-85912000D02*
X140255784Y-85866250D01*
X140255784Y-85866250D02*
X140354524Y-85873808D01*
X140354524Y-85873808D02*
X140437188Y-85929651D01*
X140437188Y-85929651D02*
X140494452Y-86028753D01*
X140494452Y-86028753D02*
X140512812Y-86107414D01*
X140512812Y-86107414D02*
X140520101Y-86187853D01*
X140520101Y-86187853D02*
X140696378Y-86187853D01*
X140696378Y-86187853D02*
X140694541Y-86099351D01*
X140694541Y-86099351D02*
X140680641Y-85964853D01*
X140680641Y-85964853D02*
X140653106Y-85866916D01*
X140653106Y-85866916D02*
X140608428Y-85794811D01*
X140608428Y-85794811D02*
X140543099Y-85737813D01*
X140543099Y-85737813D02*
X140514617Y-85719393D01*
X140514617Y-85719393D02*
X140385237Y-85671422D01*
X140385237Y-85671422D02*
X140243588Y-85668403D01*
X140243588Y-85668403D02*
X140106561Y-85706540D01*
X140106561Y-85706540D02*
X140106561Y-85706540D01*
G36*
X140697744Y-86358946D02*
G01*
X140690612Y-86512254D01*
X140671948Y-86624441D01*
X140637537Y-86707554D01*
X140583162Y-86773641D01*
X140504610Y-86834747D01*
X140454630Y-86862535D01*
X140374513Y-86881251D01*
X140261970Y-86879774D01*
X140199050Y-86873845D01*
X140123153Y-86855742D01*
X140062487Y-86816391D01*
X139991912Y-86743066D01*
X139982482Y-86732356D01*
X139919034Y-86649938D01*
X139888762Y-86578156D01*
X139881034Y-86493034D01*
X139881034Y-86367946D01*
X139968447Y-86400940D01*
X140032175Y-86439509D01*
X140087567Y-86530008D01*
X140099131Y-86558983D01*
X140163788Y-86641041D01*
X140251804Y-86682347D01*
X140347637Y-86678633D01*
X140435747Y-86625632D01*
X140466028Y-86592582D01*
X140493489Y-86542720D01*
X140484899Y-86497416D01*
X140435463Y-86450790D01*
X140340389Y-86396958D01*
X140194885Y-86330039D01*
X139895632Y-86199056D01*
X139887691Y-86069298D01*
X139890676Y-85986649D01*
X140085652Y-85986649D01*
X140100453Y-86037815D01*
X140167797Y-86092442D01*
X140290027Y-86154597D01*
X140310253Y-86163601D01*
X140406970Y-86205493D01*
X140479334Y-86234958D01*
X140512961Y-86246092D01*
X140518056Y-86237896D01*
X140520101Y-86187853D01*
X140512812Y-86107414D01*
X140494452Y-86028753D01*
X140437188Y-85929651D01*
X140354524Y-85873808D01*
X140255784Y-85866250D01*
X140150289Y-85912000D01*
X140121053Y-85934876D01*
X140085652Y-85986649D01*
X139890676Y-85986649D01*
X139891196Y-85972255D01*
X139935336Y-85849617D01*
X139991050Y-85782034D01*
X140106561Y-85706540D01*
X140243588Y-85668403D01*
X140385237Y-85671422D01*
X140514617Y-85719393D01*
X140543099Y-85737813D01*
X140608428Y-85794811D01*
X140653106Y-85866916D01*
X140680641Y-85964853D01*
X140694541Y-86099351D01*
X140696378Y-86187853D01*
X140698313Y-86281136D01*
X140697744Y-86358946D01*
G37*
X140697744Y-86358946D02*
X140690612Y-86512254D01*
X140671948Y-86624441D01*
X140637537Y-86707554D01*
X140583162Y-86773641D01*
X140504610Y-86834747D01*
X140454630Y-86862535D01*
X140374513Y-86881251D01*
X140261970Y-86879774D01*
X140199050Y-86873845D01*
X140123153Y-86855742D01*
X140062487Y-86816391D01*
X139991912Y-86743066D01*
X139982482Y-86732356D01*
X139919034Y-86649938D01*
X139888762Y-86578156D01*
X139881034Y-86493034D01*
X139881034Y-86367946D01*
X139968447Y-86400940D01*
X140032175Y-86439509D01*
X140087567Y-86530008D01*
X140099131Y-86558983D01*
X140163788Y-86641041D01*
X140251804Y-86682347D01*
X140347637Y-86678633D01*
X140435747Y-86625632D01*
X140466028Y-86592582D01*
X140493489Y-86542720D01*
X140484899Y-86497416D01*
X140435463Y-86450790D01*
X140340389Y-86396958D01*
X140194885Y-86330039D01*
X139895632Y-86199056D01*
X139887691Y-86069298D01*
X139890676Y-85986649D01*
X140085652Y-85986649D01*
X140100453Y-86037815D01*
X140167797Y-86092442D01*
X140290027Y-86154597D01*
X140310253Y-86163601D01*
X140406970Y-86205493D01*
X140479334Y-86234958D01*
X140512961Y-86246092D01*
X140518056Y-86237896D01*
X140520101Y-86187853D01*
X140512812Y-86107414D01*
X140494452Y-86028753D01*
X140437188Y-85929651D01*
X140354524Y-85873808D01*
X140255784Y-85866250D01*
X140150289Y-85912000D01*
X140121053Y-85934876D01*
X140085652Y-85986649D01*
X139890676Y-85986649D01*
X139891196Y-85972255D01*
X139935336Y-85849617D01*
X139991050Y-85782034D01*
X140106561Y-85706540D01*
X140243588Y-85668403D01*
X140385237Y-85671422D01*
X140514617Y-85719393D01*
X140543099Y-85737813D01*
X140608428Y-85794811D01*
X140653106Y-85866916D01*
X140680641Y-85964853D01*
X140694541Y-86099351D01*
X140696378Y-86187853D01*
X140698313Y-86281136D01*
X140697744Y-86358946D01*
X142135594Y-85685156D02*
X142051531Y-85723393D01*
X142051531Y-85723393D02*
X141985550Y-85769726D01*
X141985550Y-85769726D02*
X141937206Y-85821532D01*
X141937206Y-85821532D02*
X141903828Y-85888363D01*
X141903828Y-85888363D02*
X141882747Y-85979769D01*
X141882747Y-85979769D02*
X141871293Y-86105301D01*
X141871293Y-86105301D02*
X141866797Y-86274508D01*
X141866797Y-86274508D02*
X141866322Y-86385933D01*
X141866322Y-86385933D02*
X141866322Y-86820627D01*
X141866322Y-86820627D02*
X141940684Y-86854509D01*
X141940684Y-86854509D02*
X141999254Y-86879272D01*
X141999254Y-86879272D02*
X142028270Y-86888391D01*
X142028270Y-86888391D02*
X142033821Y-86861257D01*
X142033821Y-86861257D02*
X142038225Y-86788094D01*
X142038225Y-86788094D02*
X142040922Y-86681263D01*
X142040922Y-86681263D02*
X142041494Y-86596437D01*
X142041494Y-86596437D02*
X142043954Y-86473887D01*
X142043954Y-86473887D02*
X142050588Y-86376668D01*
X142050588Y-86376668D02*
X142060274Y-86317134D01*
X142060274Y-86317134D02*
X142067968Y-86304483D01*
X142067968Y-86304483D02*
X142119689Y-86317402D01*
X142119689Y-86317402D02*
X142200883Y-86350539D01*
X142200883Y-86350539D02*
X142294898Y-86395461D01*
X142294898Y-86395461D02*
X142385083Y-86443735D01*
X142385083Y-86443735D02*
X142454785Y-86486928D01*
X142454785Y-86486928D02*
X142487352Y-86516608D01*
X142487352Y-86516608D02*
X142487481Y-86516929D01*
X142487481Y-86516929D02*
X142484680Y-86571857D01*
X142484680Y-86571857D02*
X142459561Y-86624292D01*
X142459561Y-86624292D02*
X142415459Y-86666881D01*
X142415459Y-86666881D02*
X142351091Y-86681126D01*
X142351091Y-86681126D02*
X142296079Y-86679466D01*
X142296079Y-86679466D02*
X142218165Y-86678245D01*
X142218165Y-86678245D02*
X142177268Y-86696498D01*
X142177268Y-86696498D02*
X142152705Y-86744726D01*
X142152705Y-86744726D02*
X142149608Y-86753820D01*
X142149608Y-86753820D02*
X142138960Y-86822598D01*
X142138960Y-86822598D02*
X142167435Y-86864360D01*
X142167435Y-86864360D02*
X142241656Y-86884263D01*
X142241656Y-86884263D02*
X142321832Y-86887944D01*
X142321832Y-86887944D02*
X142466110Y-86860658D01*
X142466110Y-86860658D02*
X142540797Y-86821690D01*
X142540797Y-86821690D02*
X142633037Y-86730148D01*
X142633037Y-86730148D02*
X142681957Y-86617782D01*
X142681957Y-86617782D02*
X142686346Y-86499051D01*
X142686346Y-86499051D02*
X142644999Y-86388411D01*
X142644999Y-86388411D02*
X142582803Y-86319080D01*
X142582803Y-86319080D02*
X142520706Y-86280265D01*
X142520706Y-86280265D02*
X142423105Y-86231125D01*
X142423105Y-86231125D02*
X142309368Y-86181292D01*
X142309368Y-86181292D02*
X142290410Y-86173677D01*
X142290410Y-86173677D02*
X142165479Y-86118545D01*
X142165479Y-86118545D02*
X142093461Y-86069954D01*
X142093461Y-86069954D02*
X142070300Y-86021647D01*
X142070300Y-86021647D02*
X142091936Y-85967370D01*
X142091936Y-85967370D02*
X142129080Y-85924943D01*
X142129080Y-85924943D02*
X142216873Y-85872702D01*
X142216873Y-85872702D02*
X142313470Y-85868784D01*
X142313470Y-85868784D02*
X142402056Y-85909041D01*
X142402056Y-85909041D02*
X142465814Y-85989326D01*
X142465814Y-85989326D02*
X142474183Y-86010040D01*
X142474183Y-86010040D02*
X142522904Y-86086225D01*
X142522904Y-86086225D02*
X142594035Y-86142785D01*
X142594035Y-86142785D02*
X142683793Y-86189201D01*
X142683793Y-86189201D02*
X142683793Y-86057584D01*
X142683793Y-86057584D02*
X142678510Y-85977168D01*
X142678510Y-85977168D02*
X142655858Y-85913786D01*
X142655858Y-85913786D02*
X142605633Y-85846163D01*
X142605633Y-85846163D02*
X142557418Y-85794076D01*
X142557418Y-85794076D02*
X142482446Y-85720322D01*
X142482446Y-85720322D02*
X142424194Y-85680702D01*
X142424194Y-85680702D02*
X142361628Y-85664810D01*
X142361628Y-85664810D02*
X142290807Y-85662184D01*
X142290807Y-85662184D02*
X142135594Y-85685156D01*
X142135594Y-85685156D02*
X142135594Y-85685156D01*
G36*
X142361628Y-85664810D02*
G01*
X142424194Y-85680702D01*
X142482446Y-85720322D01*
X142557418Y-85794076D01*
X142605633Y-85846163D01*
X142655858Y-85913786D01*
X142678510Y-85977168D01*
X142683793Y-86057584D01*
X142683793Y-86189201D01*
X142594035Y-86142785D01*
X142522904Y-86086225D01*
X142474183Y-86010040D01*
X142465814Y-85989326D01*
X142402056Y-85909041D01*
X142313470Y-85868784D01*
X142216873Y-85872702D01*
X142129080Y-85924943D01*
X142091936Y-85967370D01*
X142070300Y-86021647D01*
X142093461Y-86069954D01*
X142165479Y-86118545D01*
X142290410Y-86173677D01*
X142309368Y-86181292D01*
X142423105Y-86231125D01*
X142520706Y-86280265D01*
X142582803Y-86319080D01*
X142644999Y-86388411D01*
X142686346Y-86499051D01*
X142681957Y-86617782D01*
X142633037Y-86730148D01*
X142540797Y-86821690D01*
X142466110Y-86860658D01*
X142321832Y-86887944D01*
X142241656Y-86884263D01*
X142167435Y-86864360D01*
X142138960Y-86822598D01*
X142149608Y-86753820D01*
X142152705Y-86744726D01*
X142177268Y-86696498D01*
X142218165Y-86678245D01*
X142296079Y-86679466D01*
X142351091Y-86681126D01*
X142415459Y-86666881D01*
X142459561Y-86624292D01*
X142484680Y-86571857D01*
X142487481Y-86516929D01*
X142487352Y-86516608D01*
X142454785Y-86486928D01*
X142385083Y-86443735D01*
X142294898Y-86395461D01*
X142200883Y-86350539D01*
X142119689Y-86317402D01*
X142067968Y-86304483D01*
X142060274Y-86317134D01*
X142050588Y-86376668D01*
X142043954Y-86473887D01*
X142041494Y-86596437D01*
X142040922Y-86681263D01*
X142038225Y-86788094D01*
X142033821Y-86861257D01*
X142028270Y-86888391D01*
X141999254Y-86879272D01*
X141940684Y-86854509D01*
X141866322Y-86820627D01*
X141866322Y-86385933D01*
X141866797Y-86274508D01*
X141871293Y-86105301D01*
X141882747Y-85979769D01*
X141903828Y-85888363D01*
X141937206Y-85821532D01*
X141985550Y-85769726D01*
X142051531Y-85723393D01*
X142135594Y-85685156D01*
X142290807Y-85662184D01*
X142361628Y-85664810D01*
G37*
X142361628Y-85664810D02*
X142424194Y-85680702D01*
X142482446Y-85720322D01*
X142557418Y-85794076D01*
X142605633Y-85846163D01*
X142655858Y-85913786D01*
X142678510Y-85977168D01*
X142683793Y-86057584D01*
X142683793Y-86189201D01*
X142594035Y-86142785D01*
X142522904Y-86086225D01*
X142474183Y-86010040D01*
X142465814Y-85989326D01*
X142402056Y-85909041D01*
X142313470Y-85868784D01*
X142216873Y-85872702D01*
X142129080Y-85924943D01*
X142091936Y-85967370D01*
X142070300Y-86021647D01*
X142093461Y-86069954D01*
X142165479Y-86118545D01*
X142290410Y-86173677D01*
X142309368Y-86181292D01*
X142423105Y-86231125D01*
X142520706Y-86280265D01*
X142582803Y-86319080D01*
X142644999Y-86388411D01*
X142686346Y-86499051D01*
X142681957Y-86617782D01*
X142633037Y-86730148D01*
X142540797Y-86821690D01*
X142466110Y-86860658D01*
X142321832Y-86887944D01*
X142241656Y-86884263D01*
X142167435Y-86864360D01*
X142138960Y-86822598D01*
X142149608Y-86753820D01*
X142152705Y-86744726D01*
X142177268Y-86696498D01*
X142218165Y-86678245D01*
X142296079Y-86679466D01*
X142351091Y-86681126D01*
X142415459Y-86666881D01*
X142459561Y-86624292D01*
X142484680Y-86571857D01*
X142487481Y-86516929D01*
X142487352Y-86516608D01*
X142454785Y-86486928D01*
X142385083Y-86443735D01*
X142294898Y-86395461D01*
X142200883Y-86350539D01*
X142119689Y-86317402D01*
X142067968Y-86304483D01*
X142060274Y-86317134D01*
X142050588Y-86376668D01*
X142043954Y-86473887D01*
X142041494Y-86596437D01*
X142040922Y-86681263D01*
X142038225Y-86788094D01*
X142033821Y-86861257D01*
X142028270Y-86888391D01*
X141999254Y-86879272D01*
X141940684Y-86854509D01*
X141866322Y-86820627D01*
X141866322Y-86385933D01*
X141866797Y-86274508D01*
X141871293Y-86105301D01*
X141882747Y-85979769D01*
X141903828Y-85888363D01*
X141937206Y-85821532D01*
X141985550Y-85769726D01*
X142051531Y-85723393D01*
X142135594Y-85685156D01*
X142290807Y-85662184D01*
X142361628Y-85664810D01*
X144056086Y-85904455D02*
X144056457Y-86122661D01*
X144056457Y-86122661D02*
X144057892Y-86290519D01*
X144057892Y-86290519D02*
X144060998Y-86416070D01*
X144060998Y-86416070D02*
X144066378Y-86507355D01*
X144066378Y-86507355D02*
X144074638Y-86572415D01*
X144074638Y-86572415D02*
X144086384Y-86619291D01*
X144086384Y-86619291D02*
X144102219Y-86656024D01*
X144102219Y-86656024D02*
X144114210Y-86676991D01*
X144114210Y-86676991D02*
X144213510Y-86790694D01*
X144213510Y-86790694D02*
X144339412Y-86861965D01*
X144339412Y-86861965D02*
X144478709Y-86887538D01*
X144478709Y-86887538D02*
X144618195Y-86864150D01*
X144618195Y-86864150D02*
X144701257Y-86822119D01*
X144701257Y-86822119D02*
X144788455Y-86749411D01*
X144788455Y-86749411D02*
X144847883Y-86660612D01*
X144847883Y-86660612D02*
X144883739Y-86544320D01*
X144883739Y-86544320D02*
X144900219Y-86389135D01*
X144900219Y-86389135D02*
X144902553Y-86275287D01*
X144902553Y-86275287D02*
X144902239Y-86267106D01*
X144902239Y-86267106D02*
X144698276Y-86267106D01*
X144698276Y-86267106D02*
X144697030Y-86397657D01*
X144697030Y-86397657D02*
X144691322Y-86484080D01*
X144691322Y-86484080D02*
X144678196Y-86540618D01*
X144678196Y-86540618D02*
X144654694Y-86581514D01*
X144654694Y-86581514D02*
X144626614Y-86612362D01*
X144626614Y-86612362D02*
X144532312Y-86671905D01*
X144532312Y-86671905D02*
X144431060Y-86676992D01*
X144431060Y-86676992D02*
X144335364Y-86627279D01*
X144335364Y-86627279D02*
X144327916Y-86620543D01*
X144327916Y-86620543D02*
X144296126Y-86585502D01*
X144296126Y-86585502D02*
X144276192Y-86543811D01*
X144276192Y-86543811D02*
X144265400Y-86481762D01*
X144265400Y-86481762D02*
X144261035Y-86385644D01*
X144261035Y-86385644D02*
X144260345Y-86279379D01*
X144260345Y-86279379D02*
X144261841Y-86145880D01*
X144261841Y-86145880D02*
X144268036Y-86056822D01*
X144268036Y-86056822D02*
X144281486Y-85998293D01*
X144281486Y-85998293D02*
X144304749Y-85956382D01*
X144304749Y-85956382D02*
X144323825Y-85934123D01*
X144323825Y-85934123D02*
X144412437Y-85877985D01*
X144412437Y-85877985D02*
X144514492Y-85871235D01*
X144514492Y-85871235D02*
X144611905Y-85914114D01*
X144611905Y-85914114D02*
X144630704Y-85930032D01*
X144630704Y-85930032D02*
X144662707Y-85965382D01*
X144662707Y-85965382D02*
X144682682Y-86007502D01*
X144682682Y-86007502D02*
X144693407Y-86070251D01*
X144693407Y-86070251D02*
X144697661Y-86167487D01*
X144697661Y-86167487D02*
X144698276Y-86267106D01*
X144698276Y-86267106D02*
X144902239Y-86267106D01*
X144902239Y-86267106D02*
X144895496Y-86091947D01*
X144895496Y-86091947D02*
X144871528Y-85954195D01*
X144871528Y-85954195D02*
X144826452Y-85850632D01*
X144826452Y-85850632D02*
X144756072Y-85769856D01*
X144756072Y-85769856D02*
X144701257Y-85728455D01*
X144701257Y-85728455D02*
X144601624Y-85683728D01*
X144601624Y-85683728D02*
X144486145Y-85662967D01*
X144486145Y-85662967D02*
X144378801Y-85668525D01*
X144378801Y-85668525D02*
X144318736Y-85690943D01*
X144318736Y-85690943D02*
X144295165Y-85697323D01*
X144295165Y-85697323D02*
X144279523Y-85673535D01*
X144279523Y-85673535D02*
X144268605Y-85609788D01*
X144268605Y-85609788D02*
X144260345Y-85512687D01*
X144260345Y-85512687D02*
X144251301Y-85404541D01*
X144251301Y-85404541D02*
X144238739Y-85339475D01*
X144238739Y-85339475D02*
X144215881Y-85302268D01*
X144215881Y-85302268D02*
X144175949Y-85277699D01*
X144175949Y-85277699D02*
X144150862Y-85266819D01*
X144150862Y-85266819D02*
X144055977Y-85227072D01*
X144055977Y-85227072D02*
X144056086Y-85904455D01*
X144056086Y-85904455D02*
X144056086Y-85904455D01*
G36*
X144900219Y-86389135D02*
G01*
X144883739Y-86544320D01*
X144847883Y-86660612D01*
X144788455Y-86749411D01*
X144701257Y-86822119D01*
X144618195Y-86864150D01*
X144478709Y-86887538D01*
X144339412Y-86861965D01*
X144213510Y-86790694D01*
X144114210Y-86676991D01*
X144102219Y-86656024D01*
X144086384Y-86619291D01*
X144074638Y-86572415D01*
X144066378Y-86507355D01*
X144060998Y-86416070D01*
X144057892Y-86290519D01*
X144057797Y-86279379D01*
X144260345Y-86279379D01*
X144261035Y-86385644D01*
X144265400Y-86481762D01*
X144276192Y-86543811D01*
X144296126Y-86585502D01*
X144327916Y-86620543D01*
X144335364Y-86627279D01*
X144431060Y-86676992D01*
X144532312Y-86671905D01*
X144626614Y-86612362D01*
X144654694Y-86581514D01*
X144678196Y-86540618D01*
X144691322Y-86484080D01*
X144697030Y-86397657D01*
X144698276Y-86267106D01*
X144697661Y-86167487D01*
X144693407Y-86070251D01*
X144682682Y-86007502D01*
X144662707Y-85965382D01*
X144630704Y-85930032D01*
X144611905Y-85914114D01*
X144514492Y-85871235D01*
X144412437Y-85877985D01*
X144323825Y-85934123D01*
X144304749Y-85956382D01*
X144281486Y-85998293D01*
X144268036Y-86056822D01*
X144261841Y-86145880D01*
X144260345Y-86279379D01*
X144057797Y-86279379D01*
X144056457Y-86122661D01*
X144056086Y-85904455D01*
X144055977Y-85227072D01*
X144150862Y-85266819D01*
X144175949Y-85277699D01*
X144215881Y-85302268D01*
X144238739Y-85339475D01*
X144251301Y-85404541D01*
X144260345Y-85512687D01*
X144268605Y-85609788D01*
X144279523Y-85673535D01*
X144295165Y-85697323D01*
X144318736Y-85690943D01*
X144378801Y-85668525D01*
X144486145Y-85662967D01*
X144601624Y-85683728D01*
X144701257Y-85728455D01*
X144756072Y-85769856D01*
X144826452Y-85850632D01*
X144871528Y-85954195D01*
X144895496Y-86091947D01*
X144902239Y-86267106D01*
X144902553Y-86275287D01*
X144900219Y-86389135D01*
G37*
X144900219Y-86389135D02*
X144883739Y-86544320D01*
X144847883Y-86660612D01*
X144788455Y-86749411D01*
X144701257Y-86822119D01*
X144618195Y-86864150D01*
X144478709Y-86887538D01*
X144339412Y-86861965D01*
X144213510Y-86790694D01*
X144114210Y-86676991D01*
X144102219Y-86656024D01*
X144086384Y-86619291D01*
X144074638Y-86572415D01*
X144066378Y-86507355D01*
X144060998Y-86416070D01*
X144057892Y-86290519D01*
X144057797Y-86279379D01*
X144260345Y-86279379D01*
X144261035Y-86385644D01*
X144265400Y-86481762D01*
X144276192Y-86543811D01*
X144296126Y-86585502D01*
X144327916Y-86620543D01*
X144335364Y-86627279D01*
X144431060Y-86676992D01*
X144532312Y-86671905D01*
X144626614Y-86612362D01*
X144654694Y-86581514D01*
X144678196Y-86540618D01*
X144691322Y-86484080D01*
X144697030Y-86397657D01*
X144698276Y-86267106D01*
X144697661Y-86167487D01*
X144693407Y-86070251D01*
X144682682Y-86007502D01*
X144662707Y-85965382D01*
X144630704Y-85930032D01*
X144611905Y-85914114D01*
X144514492Y-85871235D01*
X144412437Y-85877985D01*
X144323825Y-85934123D01*
X144304749Y-85956382D01*
X144281486Y-85998293D01*
X144268036Y-86056822D01*
X144261841Y-86145880D01*
X144260345Y-86279379D01*
X144057797Y-86279379D01*
X144056457Y-86122661D01*
X144056086Y-85904455D01*
X144055977Y-85227072D01*
X144150862Y-85266819D01*
X144175949Y-85277699D01*
X144215881Y-85302268D01*
X144238739Y-85339475D01*
X144251301Y-85404541D01*
X144260345Y-85512687D01*
X144268605Y-85609788D01*
X144279523Y-85673535D01*
X144295165Y-85697323D01*
X144318736Y-85690943D01*
X144378801Y-85668525D01*
X144486145Y-85662967D01*
X144601624Y-85683728D01*
X144701257Y-85728455D01*
X144756072Y-85769856D01*
X144826452Y-85850632D01*
X144871528Y-85954195D01*
X144895496Y-86091947D01*
X144902239Y-86267106D01*
X144902553Y-86275287D01*
X144900219Y-86389135D01*
X145384057Y-85671920D02*
X145251435Y-85720859D01*
X145251435Y-85720859D02*
X145143990Y-85807419D01*
X145143990Y-85807419D02*
X145101968Y-85868352D01*
X145101968Y-85868352D02*
X145056157Y-85980161D01*
X145056157Y-85980161D02*
X145057109Y-86061006D01*
X145057109Y-86061006D02*
X145105192Y-86115378D01*
X145105192Y-86115378D02*
X145122983Y-86124624D01*
X145122983Y-86124624D02*
X145199796Y-86153450D01*
X145199796Y-86153450D02*
X145239024Y-86146065D01*
X145239024Y-86146065D02*
X145252311Y-86097658D01*
X145252311Y-86097658D02*
X145252988Y-86070920D01*
X145252988Y-86070920D02*
X145277314Y-85972548D01*
X145277314Y-85972548D02*
X145340719Y-85903734D01*
X145340719Y-85903734D02*
X145428846Y-85870498D01*
X145428846Y-85870498D02*
X145527337Y-85878861D01*
X145527337Y-85878861D02*
X145607398Y-85922296D01*
X145607398Y-85922296D02*
X145634439Y-85947072D01*
X145634439Y-85947072D02*
X145653606Y-85977129D01*
X145653606Y-85977129D02*
X145666554Y-86022565D01*
X145666554Y-86022565D02*
X145674936Y-86093476D01*
X145674936Y-86093476D02*
X145680407Y-86199960D01*
X145680407Y-86199960D02*
X145684622Y-86352112D01*
X145684622Y-86352112D02*
X145685713Y-86400287D01*
X145685713Y-86400287D02*
X145689693Y-86565095D01*
X145689693Y-86565095D02*
X145694219Y-86681088D01*
X145694219Y-86681088D02*
X145701005Y-86757833D01*
X145701005Y-86757833D02*
X145711769Y-86804893D01*
X145711769Y-86804893D02*
X145728227Y-86831835D01*
X145728227Y-86831835D02*
X145752094Y-86848223D01*
X145752094Y-86848223D02*
X145767374Y-86855463D01*
X145767374Y-86855463D02*
X145832267Y-86880220D01*
X145832267Y-86880220D02*
X145870466Y-86888391D01*
X145870466Y-86888391D02*
X145883088Y-86861103D01*
X145883088Y-86861103D02*
X145890792Y-86778603D01*
X145890792Y-86778603D02*
X145893620Y-86639941D01*
X145893620Y-86639941D02*
X145891614Y-86444162D01*
X145891614Y-86444162D02*
X145890989Y-86413965D01*
X145890989Y-86413965D02*
X145886579Y-86235349D01*
X145886579Y-86235349D02*
X145881365Y-86104923D01*
X145881365Y-86104923D02*
X145873945Y-86012492D01*
X145873945Y-86012492D02*
X145862918Y-85947858D01*
X145862918Y-85947858D02*
X145846883Y-85900825D01*
X145846883Y-85900825D02*
X145824439Y-85861196D01*
X145824439Y-85861196D02*
X145812698Y-85844215D01*
X145812698Y-85844215D02*
X145745381Y-85769080D01*
X145745381Y-85769080D02*
X145670090Y-85710638D01*
X145670090Y-85710638D02*
X145660872Y-85705536D01*
X145660872Y-85705536D02*
X145525867Y-85665260D01*
X145525867Y-85665260D02*
X145384057Y-85671920D01*
X145384057Y-85671920D02*
X145384057Y-85671920D01*
G36*
X145660872Y-85705536D02*
G01*
X145670090Y-85710638D01*
X145745381Y-85769080D01*
X145812698Y-85844215D01*
X145824439Y-85861196D01*
X145846883Y-85900825D01*
X145862918Y-85947858D01*
X145873945Y-86012492D01*
X145881365Y-86104923D01*
X145886579Y-86235349D01*
X145890989Y-86413965D01*
X145891614Y-86444162D01*
X145893620Y-86639941D01*
X145890792Y-86778603D01*
X145883088Y-86861103D01*
X145870466Y-86888391D01*
X145832267Y-86880220D01*
X145767374Y-86855463D01*
X145752094Y-86848223D01*
X145728227Y-86831835D01*
X145711769Y-86804893D01*
X145701005Y-86757833D01*
X145694219Y-86681088D01*
X145689693Y-86565095D01*
X145685713Y-86400287D01*
X145684622Y-86352112D01*
X145680407Y-86199960D01*
X145674936Y-86093476D01*
X145666554Y-86022565D01*
X145653606Y-85977129D01*
X145634439Y-85947072D01*
X145607398Y-85922296D01*
X145527337Y-85878861D01*
X145428846Y-85870498D01*
X145340719Y-85903734D01*
X145277314Y-85972548D01*
X145252988Y-86070920D01*
X145252311Y-86097658D01*
X145239024Y-86146065D01*
X145199796Y-86153450D01*
X145122983Y-86124624D01*
X145105192Y-86115378D01*
X145057109Y-86061006D01*
X145056157Y-85980161D01*
X145101968Y-85868352D01*
X145143990Y-85807419D01*
X145251435Y-85720859D01*
X145384057Y-85671920D01*
X145525867Y-85665260D01*
X145660872Y-85705536D01*
G37*
X145660872Y-85705536D02*
X145670090Y-85710638D01*
X145745381Y-85769080D01*
X145812698Y-85844215D01*
X145824439Y-85861196D01*
X145846883Y-85900825D01*
X145862918Y-85947858D01*
X145873945Y-86012492D01*
X145881365Y-86104923D01*
X145886579Y-86235349D01*
X145890989Y-86413965D01*
X145891614Y-86444162D01*
X145893620Y-86639941D01*
X145890792Y-86778603D01*
X145883088Y-86861103D01*
X145870466Y-86888391D01*
X145832267Y-86880220D01*
X145767374Y-86855463D01*
X145752094Y-86848223D01*
X145728227Y-86831835D01*
X145711769Y-86804893D01*
X145701005Y-86757833D01*
X145694219Y-86681088D01*
X145689693Y-86565095D01*
X145685713Y-86400287D01*
X145684622Y-86352112D01*
X145680407Y-86199960D01*
X145674936Y-86093476D01*
X145666554Y-86022565D01*
X145653606Y-85977129D01*
X145634439Y-85947072D01*
X145607398Y-85922296D01*
X145527337Y-85878861D01*
X145428846Y-85870498D01*
X145340719Y-85903734D01*
X145277314Y-85972548D01*
X145252988Y-86070920D01*
X145252311Y-86097658D01*
X145239024Y-86146065D01*
X145199796Y-86153450D01*
X145122983Y-86124624D01*
X145105192Y-86115378D01*
X145057109Y-86061006D01*
X145056157Y-85980161D01*
X145101968Y-85868352D01*
X145143990Y-85807419D01*
X145251435Y-85720859D01*
X145384057Y-85671920D01*
X145525867Y-85665260D01*
X145660872Y-85705536D01*
%TD*%
M02*
