%TF.GenerationSoftware,KiCad,Pcbnew,6.0.2+dfsg-1*%
%TF.CreationDate,2023-03-08T14:33:37+01:00*%
%TF.ProjectId,bunny,62756e6e-792e-46b6-9963-61645f706362,rev?*%
%TF.SameCoordinates,Original*%
%TF.FileFunction,Copper,L2,Bot*%
%TF.FilePolarity,Positive*%
%FSLAX46Y46*%
G04 Gerber Fmt 4.6, Leading zero omitted, Abs format (unit mm)*
G04 Created by KiCad (PCBNEW 6.0.2+dfsg-1) date 2023-03-08 14:33:37*
%MOMM*%
%LPD*%
G01*
G04 APERTURE LIST*
G04 Aperture macros list*
%AMRoundRect*
0 Rectangle with rounded corners*
0 $1 Rounding radius*
0 $2 $3 $4 $5 $6 $7 $8 $9 X,Y pos of 4 corners*
0 Add a 4 corners polygon primitive as box body*
4,1,4,$2,$3,$4,$5,$6,$7,$8,$9,$2,$3,0*
0 Add four circle primitives for the rounded corners*
1,1,$1+$1,$2,$3*
1,1,$1+$1,$4,$5*
1,1,$1+$1,$6,$7*
1,1,$1+$1,$8,$9*
0 Add four rect primitives between the rounded corners*
20,1,$1+$1,$2,$3,$4,$5,0*
20,1,$1+$1,$4,$5,$6,$7,0*
20,1,$1+$1,$6,$7,$8,$9,0*
20,1,$1+$1,$8,$9,$2,$3,0*%
G04 Aperture macros list end*
%TA.AperFunction,ComponentPad*%
%ADD10RoundRect,0.625000X0.625000X-0.625000X0.625000X0.625000X-0.625000X0.625000X-0.625000X-0.625000X0*%
%TD*%
%TA.AperFunction,ComponentPad*%
%ADD11RoundRect,0.500000X0.500000X0.500000X-0.500000X0.500000X-0.500000X-0.500000X0.500000X-0.500000X0*%
%TD*%
%TA.AperFunction,ComponentPad*%
%ADD12RoundRect,0.500000X-0.500000X-0.500000X0.500000X-0.500000X0.500000X0.500000X-0.500000X0.500000X0*%
%TD*%
%TA.AperFunction,ComponentPad*%
%ADD13C,1.800000*%
%TD*%
%TA.AperFunction,ComponentPad*%
%ADD14RoundRect,0.500000X-0.500000X0.500000X-0.500000X-0.500000X0.500000X-0.500000X0.500000X0.500000X0*%
%TD*%
%TA.AperFunction,ComponentPad*%
%ADD15C,2.000000*%
%TD*%
%TA.AperFunction,ComponentPad*%
%ADD16RoundRect,0.500000X-0.298836X0.640856X-0.640856X-0.298836X0.298836X-0.640856X0.640856X0.298836X0*%
%TD*%
%TA.AperFunction,ComponentPad*%
%ADD17RoundRect,0.500000X-0.640856X0.298836X-0.298836X-0.640856X0.640856X-0.298836X0.298836X0.640856X0*%
%TD*%
%TA.AperFunction,ViaPad*%
%ADD18C,0.800000*%
%TD*%
%TA.AperFunction,Conductor*%
%ADD19C,0.500000*%
%TD*%
G04 APERTURE END LIST*
D10*
%TO.P,J1,1,Pin_1*%
%TO.N,+3V0*%
X144167500Y-67187500D03*
%TO.P,J1,2,Pin_2*%
%TO.N,GND*%
X147977500Y-67187500D03*
%TD*%
D11*
%TO.P,Q2,1,C*%
%TO.N,Net-(C1-Pad1)*%
X158040000Y-66730000D03*
%TO.P,Q2,2,B*%
%TO.N,Net-(C2-Pad2)*%
X155500000Y-69270000D03*
%TO.P,Q2,3,E*%
%TO.N,GND*%
X152960000Y-66730000D03*
%TD*%
%TO.P,Q1,1,C*%
%TO.N,Net-(C2-Pad1)*%
X139540000Y-66730000D03*
%TO.P,Q1,2,B*%
%TO.N,Net-(C1-Pad2)*%
X137000000Y-69270000D03*
%TO.P,Q1,3,E*%
%TO.N,GND*%
X134460000Y-66730000D03*
%TD*%
D12*
%TO.P,C2,1*%
%TO.N,Net-(C2-Pad1)*%
X157100000Y-84800000D03*
D13*
%TO.P,C2,2*%
%TO.N,Net-(C2-Pad2)*%
X159600000Y-84800000D03*
%TD*%
D14*
%TO.P,D2,1,K*%
%TO.N,Net-(C1-Pad1)*%
X152600000Y-72525000D03*
D15*
%TO.P,D2,2,A*%
%TO.N,Net-(D2-Pad2)*%
X152600000Y-75065000D03*
%TD*%
%TO.P,D1,2,A*%
%TO.N,Net-(D1-Pad2)*%
X140200000Y-75065000D03*
D14*
%TO.P,D1,1,K*%
%TO.N,Net-(C2-Pad1)*%
X140200000Y-72525000D03*
%TD*%
D16*
%TO.P,R4,1*%
%TO.N,+3V0*%
X164400000Y-54000000D03*
%TO.P,R4,2*%
%TO.N,Net-(D2-Pad2)*%
X160925075Y-63547277D03*
%TD*%
D17*
%TO.P,R1,1*%
%TO.N,+3V0*%
X128000000Y-54000000D03*
%TO.P,R1,2*%
%TO.N,Net-(D1-Pad2)*%
X131474925Y-63547277D03*
%TD*%
D16*
%TO.P,R3,1*%
%TO.N,+3V0*%
X159800000Y-52600000D03*
%TO.P,R3,2*%
%TO.N,Net-(C2-Pad2)*%
X156325075Y-62147277D03*
%TD*%
D17*
%TO.P,R2,1*%
%TO.N,+3V0*%
X132600000Y-52400000D03*
%TO.P,R2,2*%
%TO.N,Net-(C1-Pad2)*%
X136074925Y-61947277D03*
%TD*%
D11*
%TO.P,C1,1*%
%TO.N,Net-(C1-Pad1)*%
X135305113Y-84800000D03*
D13*
%TO.P,C1,2*%
%TO.N,Net-(C1-Pad2)*%
X132805113Y-84800000D03*
%TD*%
D18*
%TO.N,Net-(C1-Pad1)*%
X144250000Y-82200000D03*
X147850000Y-82200000D03*
%TD*%
D19*
%TO.N,Net-(C1-Pad1)*%
X147850000Y-82200000D02*
X149300000Y-82200000D01*
X137905113Y-82200000D02*
X144250000Y-82200000D01*
%TO.N,Net-(D1-Pad2)*%
X140200000Y-75065000D02*
X145400000Y-80265000D01*
X145400000Y-80265000D02*
X145400000Y-86650000D01*
X145400000Y-86650000D02*
X143850000Y-88200000D01*
X143850000Y-88200000D02*
X132900000Y-88200000D01*
X132900000Y-88200000D02*
X130900000Y-86200000D01*
X131474925Y-66674925D02*
X131474925Y-63547277D01*
X130900000Y-86200000D02*
X130900000Y-80700000D01*
X130900000Y-80700000D02*
X133800000Y-77800000D01*
X133800000Y-77800000D02*
X133800000Y-69000000D01*
X133800000Y-69000000D02*
X131474925Y-66674925D01*
%TO.N,Net-(C2-Pad2)*%
X155500000Y-69270000D02*
X154270000Y-70500000D01*
X151500000Y-70500000D02*
X147000000Y-75000000D01*
X154270000Y-70500000D02*
X151500000Y-70500000D01*
X147250000Y-83500000D02*
X154000000Y-83500000D01*
X147000000Y-75000000D02*
X147000000Y-83250000D01*
X147000000Y-83250000D02*
X147250000Y-83500000D01*
X154000000Y-83500000D02*
X155500000Y-82000000D01*
X155500000Y-82000000D02*
X158700000Y-82000000D01*
X158700000Y-82000000D02*
X159600000Y-82900000D01*
X159600000Y-82900000D02*
X159600000Y-84800000D01*
%TO.N,Net-(C2-Pad1)*%
X157100000Y-84800000D02*
X147200000Y-84800000D01*
X146150000Y-83750000D02*
X146150000Y-74350000D01*
X147200000Y-84800000D02*
X146150000Y-83750000D01*
X146150000Y-74350000D02*
X144325000Y-72525000D01*
X144325000Y-72525000D02*
X140200000Y-72525000D01*
%TO.N,Net-(C1-Pad1)*%
X137905113Y-82200000D02*
X135305113Y-84800000D01*
X152600000Y-72525000D02*
X151975000Y-72525000D01*
X149800000Y-74700000D02*
X149800000Y-81700000D01*
X151975000Y-72525000D02*
X149800000Y-74700000D01*
X149800000Y-81700000D02*
X149300000Y-82200000D01*
%TO.N,Net-(C1-Pad2)*%
X132805113Y-82394887D02*
X137000000Y-78200000D01*
X132805113Y-84800000D02*
X132805113Y-82394887D01*
X137000000Y-78200000D02*
X137000000Y-69270000D01*
%TO.N,+3V0*%
X144167500Y-67187500D02*
X144167500Y-66767500D01*
X142200000Y-64800000D02*
X138800000Y-64800000D01*
X144167500Y-66767500D02*
X142200000Y-64800000D01*
X138800000Y-64800000D02*
X138400000Y-64400000D01*
X138400000Y-64400000D02*
X138400000Y-58200000D01*
X138400000Y-58200000D02*
X132600000Y-52400000D01*
X144167500Y-67187500D02*
X146580000Y-69600000D01*
X146580000Y-69600000D02*
X150400000Y-69600000D01*
X150400000Y-69600000D02*
X150600000Y-69400000D01*
X154200000Y-64000000D02*
X154200000Y-58200000D01*
X150600000Y-69400000D02*
X150600000Y-65800000D01*
X151800000Y-64600000D02*
X153600000Y-64600000D01*
X150600000Y-65800000D02*
X151800000Y-64600000D01*
X153600000Y-64600000D02*
X154200000Y-64000000D01*
X154200000Y-58200000D02*
X159800000Y-52600000D01*
%TO.N,Net-(C2-Pad1)*%
X139540000Y-66730000D02*
X140200000Y-67390000D01*
X140200000Y-67390000D02*
X140200000Y-72525000D01*
%TO.N,+3V0*%
X132600000Y-52400000D02*
X131000000Y-54000000D01*
X131000000Y-54000000D02*
X128000000Y-54000000D01*
X159800000Y-52600000D02*
X161200000Y-54000000D01*
X161200000Y-54000000D02*
X164400000Y-54000000D01*
%TO.N,Net-(C2-Pad2)*%
X155500000Y-69270000D02*
X155500000Y-62972352D01*
X155500000Y-62972352D02*
X156325075Y-62147277D01*
%TO.N,Net-(C1-Pad2)*%
X137000000Y-69270000D02*
X137000000Y-62872352D01*
X137000000Y-62872352D02*
X136074925Y-61947277D01*
%TO.N,Net-(D2-Pad2)*%
X152600000Y-75065000D02*
X152635000Y-75030000D01*
X152635000Y-75030000D02*
X155800000Y-75030000D01*
X155800000Y-75030000D02*
X159000000Y-71830000D01*
X159000000Y-71830000D02*
X159000000Y-68500000D01*
X159000000Y-68500000D02*
X160925075Y-66574925D01*
X160925075Y-66574925D02*
X160925075Y-63547277D01*
%TO.N,Net-(C1-Pad1)*%
X152600000Y-72525000D02*
X155325000Y-72525000D01*
X155325000Y-72525000D02*
X155350000Y-72500000D01*
X155350000Y-72500000D02*
X156000000Y-72500000D01*
X156000000Y-72500000D02*
X158040000Y-70460000D01*
X158040000Y-70460000D02*
X158040000Y-66730000D01*
%TO.N,+3V0*%
X144105000Y-66825000D02*
X144167500Y-66887500D01*
%TD*%
M02*
